M48
;Layer_Color=6321
;FILE_FORMAT=2:5
INCH,LZ
;TYPE=PLATED
T1F00S00C0.01181
T2F00S00C0.01575
T4F00S00C0.03543
T5F00S00C0.03937
T6F00S00C0.04016
T7F00S00C0.05118
T8F00S00C0.10630
%
T01
X199489Y0876524
X1990559Y089739
X2000402Y0897783
X2001976Y0924161
X1995579Y0931642
X199174Y0927803
X1987902Y0931642
X199174Y093548
X1988591Y0919437
X198111Y0918256
X196615Y0906051
X1955126Y0900539
X1940559Y0932429
X1921661Y0931642
X1903157Y0930067
Y093361
X1888591
X1871268Y0934004
X1753551Y0913925
Y090802
X1732291Y0910776
X1718905Y0923374
X1709457Y0919831
X1698433Y093361
X1672842Y0931642
X168111Y097928
X1674811Y0989909
X1637409Y1013531
X1631504Y102613
X1653945Y1039122
X1688591Y1069437
X1696465Y1073374
X1703551Y1059595
X1785047Y1032035
Y1024161
X1794102Y1028492
X1806701Y1010382
X1800795Y0988728
X1806701Y0969043
X1835835Y0972193
X1837016Y0965894
X182048Y0950539
Y0945421
X1869693Y0957232
X187363Y0959201
X1871661Y1037941
Y1043847
X1850402Y1040697
X1845874Y1031445
X1773236Y1018256
X1878354Y103676
X1893709Y1028492
X1901583Y1041091
X1920874Y1039909
X1921268Y1052114
X1934653Y1032035
X1948039Y1029673
X1956307Y1031248
X1959063Y103676
X1969299Y1040303
X1968118Y1049358
X1961032Y1049752
X1976386Y1048965
X1980717Y104424
X1979535Y1038335
X1979142Y1032823
X1986228
X1992528
X199174Y1046996
X1985441
X1995677Y1053689
X2009063Y1021799
X199489Y1007232
X199361Y0994634
X1989772Y0990795
X1985933Y0994634
X1989772Y0998472
X1986228Y0982035
X1982685Y0980854
X1977567Y0982823
X1978354Y0989516
X1963787Y1000539
X1953551Y1002902
X1967331Y1013531
X1972449Y102613
X1969693Y1029673
X1967724Y0962744
Y0958413
X1971268Y0955657
X1968905Y0938335
X1977173Y0941091
X1979929Y0943847
X1991347Y0943059
X1999614Y0944634
X199174Y0954476
X1992921Y096235
X200237
X2012803Y0951917
X2019299Y0945815
X2001583Y098676
X1956701Y0966681
X192678Y0952114
X1922842Y0948571
X1911032Y0948177
X189922Y0949358
Y0953295
Y0957232
X1895284
X1891346
Y0953295
Y0949358
X1895284
Y0953295
Y0938335
X1887803Y0996602
X1894496Y1006445
X1909457Y1006051
T02
X1860165Y1000539
Y1009555
X185115
Y1018571
Y1000539
Y0991524
X1842134
Y1000539
Y1009555
X1833118
Y1000539
Y0991524
Y0982508
X1824102Y1000539
Y1009555
T04
X1910047Y0896996
X1900205
X1878551
X1868709
T05
X2023236Y0909004
Y0918847
Y0928689
X1746661Y0876524
X1736819
X1726976
X1717134
X1686622
X167678
X1884457Y0982823
X1894299
X1904142
X1913984
X1905126Y1016287
X1895284
X1885441
X1936622
X1946465
X1956307
X2023236Y1005461
Y0995618
Y0985776
Y0975933
Y0938531
T06
X1868Y10605
X1858
Y10705
X1868
X1848
Y10605
X1838
Y10705
X1828
Y10605
X1818
Y10705
X1878
X1888
Y10605
X1898
Y10705
X1908
Y10605
X1918
X1928
X1938
X1948
X1958
X1968
X1978
Y10705
X1988
Y10605
X1998
X2008
Y10705
X1998
X1968
X1958
X1948
X1938
X1928
X1918
X1878Y10605
T07
X1981898Y0876524
X1962213
X1844102
X1824417
T08
X2027173Y0872587
X1798827
Y10655
X2027173
M30
