G04*
G04 #@! TF.GenerationSoftware,Altium Limited,CircuitStudio,1.5.2 (30)*
G04*
G04 Layer_Color=7318015*
%FSLAX25Y25*%
%MOIN*%
G70*
G01*
G75*
%ADD10R,0.05118X0.02756*%
%ADD11R,0.02756X0.05118*%
%ADD12R,0.13189X0.13189*%
%ADD13R,0.01575X0.02165*%
%ADD14R,0.02165X0.01575*%
%ADD15R,0.04803X0.02441*%
%ADD16R,0.04724X0.02362*%
%ADD17R,0.15000X0.11000*%
%ADD18R,0.01929X0.01772*%
%ADD19R,0.01969X0.03937*%
G04:AMPARAMS|DCode=20|XSize=57.09mil|YSize=17.72mil|CornerRadius=4.43mil|HoleSize=0mil|Usage=FLASHONLY|Rotation=0.000|XOffset=0mil|YOffset=0mil|HoleType=Round|Shape=RoundedRectangle|*
%AMROUNDEDRECTD20*
21,1,0.05709,0.00886,0,0,0.0*
21,1,0.04823,0.01772,0,0,0.0*
1,1,0.00886,0.02411,-0.00443*
1,1,0.00886,-0.02411,-0.00443*
1,1,0.00886,-0.02411,0.00443*
1,1,0.00886,0.02411,0.00443*
%
%ADD20ROUNDEDRECTD20*%
%ADD21R,0.05709X0.01772*%
%ADD22R,0.11000X0.15000*%
%ADD23R,0.01969X0.03150*%
D10*
X424299Y687307D02*
D03*
Y694787D02*
D03*
X410520Y661717D02*
D03*
Y669197D02*
D03*
X550283Y726284D02*
D03*
Y718803D02*
D03*
X426268Y661717D02*
D03*
Y669197D02*
D03*
X442016D02*
D03*
Y661717D02*
D03*
X371150Y588488D02*
D03*
Y581008D02*
D03*
X359339D02*
D03*
Y588488D02*
D03*
X487291Y742031D02*
D03*
Y734551D02*
D03*
X503039Y742031D02*
D03*
Y734551D02*
D03*
D11*
X349299Y757976D02*
D03*
X341819D02*
D03*
X416622Y730417D02*
D03*
X424102D02*
D03*
Y740260D02*
D03*
X416622D02*
D03*
X524496Y624118D02*
D03*
X517016D02*
D03*
X548512Y626087D02*
D03*
X555992D02*
D03*
Y618213D02*
D03*
X548512D02*
D03*
X501268Y643803D02*
D03*
X508748D02*
D03*
X501268Y624118D02*
D03*
X508748D02*
D03*
X493000Y673331D02*
D03*
X485520D02*
D03*
D12*
X538472Y641835D02*
D03*
D13*
Y650693D02*
D03*
X541032D02*
D03*
X543590D02*
D03*
X535913D02*
D03*
X533354D02*
D03*
X538472Y632976D02*
D03*
X535913D02*
D03*
X533354D02*
D03*
X541032D02*
D03*
X543590D02*
D03*
D14*
X547331Y641835D02*
D03*
Y639276D02*
D03*
Y636717D02*
D03*
Y644394D02*
D03*
Y646953D02*
D03*
X529614Y636717D02*
D03*
Y639276D02*
D03*
Y646953D02*
D03*
Y644394D02*
D03*
Y641835D02*
D03*
D15*
X368433Y600496D02*
D03*
Y604236D02*
D03*
Y596756D02*
D03*
X358118D02*
D03*
Y600496D02*
D03*
Y604236D02*
D03*
D16*
X436504Y691047D02*
D03*
Y687307D02*
D03*
Y694787D02*
D03*
X447528D02*
D03*
Y687307D02*
D03*
D17*
X404614Y620896D02*
D03*
Y648994D02*
D03*
D18*
X415874Y720575D02*
D03*
X424850D02*
D03*
D19*
X340441Y604433D02*
D03*
X342803D02*
D03*
D20*
X537291Y726382D02*
D03*
Y723823D02*
D03*
Y721264D02*
D03*
Y718705D02*
D03*
X519969D02*
D03*
Y721264D02*
D03*
Y723823D02*
D03*
D21*
Y726382D02*
D03*
D22*
X489530Y630023D02*
D03*
X461431D02*
D03*
D23*
X491819Y663685D02*
D03*
X486701D02*
D03*
X489260Y655417D02*
D03*
M02*
