G04*
G04 #@! TF.GenerationSoftware,Altium Limited,CircuitStudio,1.5.2 (30)*
G04*
G04 Layer_Physical_Order=1*
G04 Layer_Color=11767835*
%FSLAX25Y25*%
%MOIN*%
G70*
G01*
G75*
%ADD10C,0.03150*%
%ADD11R,0.09843X0.03543*%
G04:AMPARAMS|DCode=12|XSize=35.43mil|YSize=98.43mil|CornerRadius=0mil|HoleSize=0mil|Usage=FLASHONLY|Rotation=67.500|XOffset=0mil|YOffset=0mil|HoleType=Round|Shape=Rectangle|*
%AMROTATEDRECTD12*
4,1,4,0.03869,-0.03520,-0.05225,0.00247,-0.03869,0.03520,0.05225,-0.00247,0.03869,-0.03520,0.0*
%
%ADD12ROTATEDRECTD12*%

G04:AMPARAMS|DCode=13|XSize=35.43mil|YSize=98.43mil|CornerRadius=0mil|HoleSize=0mil|Usage=FLASHONLY|Rotation=225.000|XOffset=0mil|YOffset=0mil|HoleType=Round|Shape=Rectangle|*
%AMROTATEDRECTD13*
4,1,4,-0.02227,0.04733,0.04733,-0.02227,0.02227,-0.04733,-0.04733,0.02227,-0.02227,0.04733,0.0*
%
%ADD13ROTATEDRECTD13*%

G04:AMPARAMS|DCode=14|XSize=35.43mil|YSize=98.43mil|CornerRadius=0mil|HoleSize=0mil|Usage=FLASHONLY|Rotation=22.500|XOffset=0mil|YOffset=0mil|HoleType=Round|Shape=Rectangle|*
%AMROTATEDRECTD14*
4,1,4,0.00247,-0.05225,-0.03520,0.03869,-0.00247,0.05225,0.03520,-0.03869,0.00247,-0.05225,0.0*
%
%ADD14ROTATEDRECTD14*%

%ADD15R,0.03543X0.09843*%
G04:AMPARAMS|DCode=16|XSize=35.43mil|YSize=98.43mil|CornerRadius=0mil|HoleSize=0mil|Usage=FLASHONLY|Rotation=337.500|XOffset=0mil|YOffset=0mil|HoleType=Round|Shape=Rectangle|*
%AMROTATEDRECTD16*
4,1,4,-0.03520,-0.03869,0.00247,0.05225,0.03520,0.03869,-0.00247,-0.05225,-0.03520,-0.03869,0.0*
%
%ADD16ROTATEDRECTD16*%

G04:AMPARAMS|DCode=17|XSize=35.43mil|YSize=98.43mil|CornerRadius=0mil|HoleSize=0mil|Usage=FLASHONLY|Rotation=135.000|XOffset=0mil|YOffset=0mil|HoleType=Round|Shape=Rectangle|*
%AMROTATEDRECTD17*
4,1,4,0.04733,0.02227,-0.02227,-0.04733,-0.04733,-0.02227,0.02227,0.04733,0.04733,0.02227,0.0*
%
%ADD17ROTATEDRECTD17*%

G04:AMPARAMS|DCode=18|XSize=35.43mil|YSize=98.43mil|CornerRadius=0mil|HoleSize=0mil|Usage=FLASHONLY|Rotation=292.500|XOffset=0mil|YOffset=0mil|HoleType=Round|Shape=Rectangle|*
%AMROTATEDRECTD18*
4,1,4,-0.05225,-0.00247,0.03869,0.03520,0.05225,0.00247,-0.03869,-0.03520,-0.05225,-0.00247,0.0*
%
%ADD18ROTATEDRECTD18*%

%ADD19C,0.01000*%
%ADD20C,0.07874*%
D10*
X617854Y713500D02*
G03*
X624298Y681108I84646J0D01*
G01*
X642647Y653647D02*
G03*
X670108Y635298I59854J59854D01*
G01*
X656670Y694517D02*
G03*
X667423Y678423I45830J18983D01*
G01*
X683517Y667670D02*
G03*
X702500Y663894I18983J45830D01*
G01*
X642647Y773353D02*
G03*
X624298Y745892I59854J-59854D01*
G01*
X683517Y759330D02*
G03*
X667423Y748577I18983J-45830D01*
G01*
X656670Y732483D02*
G03*
X652894Y713500I45830J-18983D01*
G01*
X748330Y694517D02*
G03*
X752106Y713500I-45830J18983D01*
G01*
X721484Y667670D02*
G03*
X737577Y678423I-18983J45830D01*
G01*
X762354Y653647D02*
G03*
X780702Y681108I-59854J59854D01*
G01*
X702500Y628854D02*
G03*
X734893Y635298I0J84646D01*
G01*
X787146Y713500D02*
G03*
X780702Y745892I-84646J0D01*
G01*
X762354Y773353D02*
G03*
X734893Y791702I-59854J-59854D01*
G01*
X748330Y732483D02*
G03*
X737577Y748577I-45830J-18983D01*
G01*
X721484Y759330D02*
G03*
X702500Y763106I-18983J-45830D01*
G01*
X698366Y797949D02*
X702500D01*
X691870Y791453D02*
X698366Y797949D01*
X650859Y661859D02*
X659488Y670488D01*
X650859Y765141D02*
X659488Y756512D01*
X670183Y791521D02*
X681960D01*
X629468Y713500D02*
X641476D01*
X635182Y685552D02*
X646303Y690224D01*
X674552Y646028D02*
X679224Y657303D01*
X702500Y640469D02*
Y652673D01*
X674552Y780818D02*
X679224Y769697D01*
X635028Y741448D02*
X646303Y736776D01*
X763327Y713500D02*
X775531D01*
X758697Y690224D02*
X769972Y685552D01*
X725776Y657303D02*
X730448Y646182D01*
X745512Y670488D02*
X754141Y661859D01*
X745512Y756512D02*
X754141Y765141D01*
X758697Y736776D02*
X769818Y741448D01*
X725776Y769697D02*
X730448Y780972D01*
X702500Y774327D02*
Y786531D01*
D11*
Y797949D02*
D03*
Y786531D02*
D03*
Y774327D02*
D03*
Y762910D02*
D03*
Y629051D02*
D03*
Y640469D02*
D03*
Y652673D02*
D03*
Y664090D02*
D03*
D12*
X721408Y759148D02*
D03*
X725777Y769697D02*
D03*
X730448Y780972D02*
D03*
X734817Y791521D02*
D03*
X683592Y667852D02*
D03*
X679223Y657303D02*
D03*
X674552Y646028D02*
D03*
X670183Y635479D02*
D03*
D13*
X762214Y773214D02*
D03*
X754141Y765141D02*
D03*
X745511Y756511D02*
D03*
X737438Y748438D02*
D03*
X642786Y653786D02*
D03*
X650859Y661859D02*
D03*
X659489Y670489D02*
D03*
X667562Y678562D02*
D03*
D14*
X748148Y732408D02*
D03*
X758697Y736777D02*
D03*
X769972Y741448D02*
D03*
X780521Y745817D02*
D03*
X656852Y694592D02*
D03*
X646303Y690223D02*
D03*
X635028Y685552D02*
D03*
X624479Y681183D02*
D03*
D15*
X786949Y713500D02*
D03*
X775531D02*
D03*
X763327D02*
D03*
X751909D02*
D03*
X618051D02*
D03*
X629468D02*
D03*
X641673D02*
D03*
X653090D02*
D03*
D16*
X748148Y694592D02*
D03*
X758697Y690223D02*
D03*
X769972Y685552D02*
D03*
X780521Y681183D02*
D03*
X656852Y732408D02*
D03*
X646303Y736777D02*
D03*
X635028Y741448D02*
D03*
X624479Y745817D02*
D03*
D17*
X762214Y653786D02*
D03*
X754141Y661860D02*
D03*
X745511Y670489D02*
D03*
X737438Y678562D02*
D03*
X642786Y773214D02*
D03*
X650859Y765141D02*
D03*
X659489Y756511D02*
D03*
X667562Y748438D02*
D03*
D18*
X721408Y667852D02*
D03*
X725777Y657303D02*
D03*
X730448Y646028D02*
D03*
X734817Y635479D02*
D03*
X683592Y759148D02*
D03*
X679223Y769697D02*
D03*
X674552Y780972D02*
D03*
X670183Y791521D02*
D03*
D19*
X769818Y741448D02*
X769972D01*
D20*
X690689Y790272D02*
D03*
X680847D02*
D03*
M02*
