G04*
G04 #@! TF.GenerationSoftware,Altium Limited,CircuitStudio,1.5.2 (30)*
G04*
G04 Layer_Color=15065295*
%FSLAX25Y25*%
%MOIN*%
G70*
G01*
G75*
%ADD22C,0.01000*%
%ADD23C,0.00500*%
%ADD24C,0.00700*%
D22*
X343701Y273622D02*
G03*
X343701Y273622I-394J0D01*
G01*
X330315Y298031D02*
G03*
X330315Y298031I-394J0D01*
G01*
X309646Y220472D02*
Y244094D01*
X359646D01*
Y220472D02*
Y244094D01*
X309646Y220472D02*
X359646D01*
X334646Y285433D02*
Y297244D01*
Y285433D02*
X338583D01*
Y297244D01*
X334646D02*
X338583D01*
D23*
X342520Y276181D02*
Y282874D01*
X330709Y276181D02*
X342520D01*
X330709Y282874D02*
X342520D01*
X330709Y276181D02*
Y282874D01*
X348425Y254527D02*
Y261221D01*
X360236D01*
X348425Y254527D02*
X360236D01*
Y261221D01*
X322835Y251772D02*
Y258465D01*
X311024Y251772D02*
X322835D01*
X311024Y258465D02*
X322835D01*
X311024Y251772D02*
Y258465D01*
X322835Y260039D02*
Y266732D01*
X311024Y260039D02*
X322835D01*
X311024Y266732D02*
X322835D01*
X311024Y260039D02*
Y266732D01*
D24*
X348850Y248562D02*
X348350Y249062D01*
X347350D01*
X346850Y248562D01*
Y246563D01*
X347350Y246063D01*
X348350D01*
X348850Y246563D01*
Y247563D01*
X347850D01*
X349849Y246063D02*
Y249062D01*
X351849Y246063D01*
Y249062D01*
X352849D02*
Y246063D01*
X354348D01*
X354848Y246563D01*
Y248562D01*
X354348Y249062D01*
X352849D01*
X338220Y248562D02*
X337720Y249062D01*
X336720D01*
X336221Y248562D01*
Y248062D01*
X336720Y247563D01*
X337720D01*
X338220Y247063D01*
Y246563D01*
X337720Y246063D01*
X336720D01*
X336221Y246563D01*
X341219Y248562D02*
X340719Y249062D01*
X339719D01*
X339219Y248562D01*
Y246563D01*
X339719Y246063D01*
X340719D01*
X341219Y246563D01*
X342218Y249062D02*
Y246063D01*
X344218D01*
X327590Y248562D02*
X327090Y249062D01*
X326090D01*
X325590Y248562D01*
Y248062D01*
X326090Y247563D01*
X327090D01*
X327590Y247063D01*
Y246563D01*
X327090Y246063D01*
X326090D01*
X325590Y246563D01*
X328590Y249062D02*
Y246063D01*
X330089D01*
X330589Y246563D01*
Y248562D01*
X330089Y249062D01*
X328590D01*
X331589Y246063D02*
Y248062D01*
X332588Y249062D01*
X333588Y248062D01*
Y246063D01*
Y247563D01*
X331589D01*
X314961Y249062D02*
Y247063D01*
X315960Y246063D01*
X316960Y247063D01*
Y249062D01*
X319959Y248562D02*
X319459Y249062D01*
X318460D01*
X317960Y248562D01*
Y246563D01*
X318460Y246063D01*
X319459D01*
X319959Y246563D01*
X322958Y248562D02*
X322458Y249062D01*
X321459D01*
X320959Y248562D01*
Y246563D01*
X321459Y246063D01*
X322458D01*
X322958Y246563D01*
X347473Y280536D02*
X346973Y281036D01*
X345974D01*
X345474Y280536D01*
Y278537D01*
X345974Y278037D01*
X346973D01*
X347473Y278537D01*
X349973Y278037D02*
Y281036D01*
X348473Y279537D01*
X350472D01*
X365173Y258836D02*
X364673Y259336D01*
X363674D01*
X363174Y258836D01*
Y256837D01*
X363674Y256337D01*
X364673D01*
X365173Y256837D01*
X368172Y256337D02*
X366173D01*
X368172Y258336D01*
Y258836D01*
X367673Y259336D01*
X366673D01*
X366173Y258836D01*
X306073Y256112D02*
X305574Y256612D01*
X304574D01*
X304074Y256112D01*
Y254112D01*
X304574Y253613D01*
X305574D01*
X306073Y254112D01*
X307073Y253613D02*
X308073D01*
X307573D01*
Y256612D01*
X307073Y256112D01*
X305073Y264337D02*
X304573Y264837D01*
X303574D01*
X303074Y264337D01*
Y262338D01*
X303574Y261838D01*
X304573D01*
X305073Y262338D01*
X306073Y264337D02*
X306573Y264837D01*
X307573D01*
X308072Y264337D01*
Y263837D01*
X307573Y263337D01*
X307073D01*
X307573D01*
X308072Y262838D01*
Y262338D01*
X307573Y261838D01*
X306573D01*
X306073Y262338D01*
M02*
