G04*
G04 #@! TF.GenerationSoftware,Altium Limited,CircuitStudio,1.5.2 (30)*
G04*
G04 Layer_Physical_Order=1*
G04 Layer_Color=11767835*
%FSLAX25Y25*%
%MOIN*%
G70*
G01*
G75*
%ADD10R,0.02756X0.05118*%
%ADD11R,0.02658X0.00984*%
%ADD12R,0.00984X0.02658*%
%ADD13R,0.04331X0.02362*%
G04:AMPARAMS|DCode=14|XSize=43.31mil|YSize=23.62mil|CornerRadius=5.91mil|HoleSize=0mil|Usage=FLASHONLY|Rotation=0.000|XOffset=0mil|YOffset=0mil|HoleType=Round|Shape=RoundedRectangle|*
%AMROUNDEDRECTD14*
21,1,0.04331,0.01181,0,0,0.0*
21,1,0.03150,0.02362,0,0,0.0*
1,1,0.01181,0.01575,-0.00591*
1,1,0.01181,-0.01575,-0.00591*
1,1,0.01181,-0.01575,0.00591*
1,1,0.01181,0.01575,0.00591*
%
%ADD14ROUNDEDRECTD14*%
%ADD15C,0.00984*%
%ADD16C,0.02362*%
%ADD17C,0.01575*%
%ADD18C,0.07874*%
%ADD19R,0.07874X0.07874*%
%ADD20C,0.23622*%
%ADD21C,0.02362*%
G36*
X366598Y313691D02*
X368981Y313217D01*
X371282Y312437D01*
X373461Y311362D01*
X375481Y310012D01*
X377308Y308410D01*
X378910Y306583D01*
X380259Y304563D01*
X381334Y302384D01*
X382115Y300083D01*
X382589Y297700D01*
X382745Y295318D01*
X382737Y295276D01*
Y236221D01*
X382745Y236178D01*
X382589Y233796D01*
X382115Y231413D01*
X381334Y229112D01*
X380259Y226933D01*
X378910Y224913D01*
X377308Y223086D01*
X375481Y221484D01*
X373461Y220134D01*
X371282Y219060D01*
X368981Y218279D01*
X366598Y217805D01*
X364216Y217649D01*
X364173Y217657D01*
X305118D01*
X305075Y217649D01*
X302694Y217805D01*
X300311Y218279D01*
X298010Y219060D01*
X295831Y220134D01*
X293811Y221484D01*
X291984Y223086D01*
X290382Y224913D01*
X289032Y226933D01*
X287957Y229112D01*
X287176Y231413D01*
X286702Y233796D01*
X286546Y236178D01*
X286555Y236221D01*
Y295276D01*
X286546Y295318D01*
X286702Y297700D01*
X287176Y300083D01*
X287957Y302384D01*
X289032Y304563D01*
X290382Y306583D01*
X291984Y308410D01*
X293811Y310012D01*
X295831Y311362D01*
X298010Y312437D01*
X300311Y313217D01*
X302694Y313691D01*
X305075Y313848D01*
X305118Y313839D01*
X364173D01*
X364216Y313848D01*
X366598Y313691D01*
D02*
G37*
%LPC*%
G36*
X333572Y268809D02*
X329715D01*
Y266624D01*
Y264656D01*
Y262925D01*
X328808D01*
X327559Y264173D01*
X327198Y264415D01*
X326772Y264499D01*
X322647D01*
Y266545D01*
X318691D01*
Y260227D01*
X319255D01*
Y258277D01*
X318691D01*
Y251959D01*
X319255D01*
Y248421D01*
X318882Y248047D01*
X318575Y247589D01*
X318467Y247047D01*
Y238789D01*
X315345D01*
Y229715D01*
X324419D01*
Y238789D01*
X321297D01*
Y246461D01*
X321670Y246834D01*
X321976Y247293D01*
X322084Y247835D01*
Y251959D01*
X322647D01*
Y253703D01*
X324502D01*
X324896Y253440D01*
X325590Y253302D01*
X326286Y253440D01*
X326733Y253739D01*
X327233Y253539D01*
Y244094D01*
X327318Y243668D01*
X327559Y243307D01*
X328611Y242255D01*
Y238682D01*
X328540Y238672D01*
X327436Y238215D01*
X326489Y237488D01*
X325761Y236540D01*
X325304Y235436D01*
X325148Y234252D01*
X325304Y233068D01*
X325761Y231964D01*
X326489Y231016D01*
X327436Y230289D01*
X328540Y229832D01*
X329724Y229676D01*
X330909Y229832D01*
X332013Y230289D01*
X332960Y231016D01*
X333687Y231964D01*
X334145Y233068D01*
X334301Y234252D01*
X334145Y235436D01*
X333687Y236540D01*
X332960Y237488D01*
X332013Y238215D01*
X330909Y238672D01*
X330838Y238682D01*
Y242717D01*
X330838Y242717D01*
X330753Y243143D01*
X330673Y243263D01*
X330512Y243504D01*
X330512Y243504D01*
X329460Y244556D01*
Y256761D01*
X331644D01*
X331751Y256782D01*
X333572D01*
Y258966D01*
X331751D01*
X331644Y258987D01*
X328740D01*
X328740Y258987D01*
X328468Y258933D01*
X328089Y259313D01*
X328194Y259842D01*
X328116Y260233D01*
X328192Y260387D01*
X328504Y260698D01*
X331644D01*
X331751Y260719D01*
X333572D01*
Y262687D01*
Y264656D01*
Y266624D01*
Y268809D01*
D02*
G37*
G36*
X343513Y262903D02*
X339656D01*
Y260719D01*
X343513D01*
Y262903D01*
D02*
G37*
G36*
X334261Y296860D02*
X328731D01*
Y296151D01*
X328511Y296108D01*
X328150Y295866D01*
X323622Y291339D01*
X323381Y290977D01*
X323296Y290551D01*
Y278346D01*
X323381Y277920D01*
X323622Y277559D01*
X329134Y272047D01*
X329495Y271806D01*
X329921Y271721D01*
X329921Y271721D01*
X332610D01*
X333916Y270414D01*
Y269922D01*
X334001Y269496D01*
X334243Y269134D01*
X334882Y268495D01*
X335244Y268253D01*
X335314Y268239D01*
X335501Y268202D01*
Y255856D01*
Y250000D01*
X335585Y249574D01*
X335827Y249213D01*
X338453Y246586D01*
Y238682D01*
X338383Y238672D01*
X337279Y238215D01*
X336331Y237488D01*
X335604Y236540D01*
X335147Y235436D01*
X334991Y234252D01*
X335147Y233068D01*
X335604Y231964D01*
X336331Y231016D01*
X337279Y230289D01*
X338383Y229832D01*
X339567Y229676D01*
X340751Y229832D01*
X341855Y230289D01*
X342803Y231016D01*
X343530Y231964D01*
X343987Y233068D01*
X344143Y234252D01*
X343987Y235436D01*
X343530Y236540D01*
X342803Y237488D01*
X341855Y238215D01*
X340751Y238672D01*
X340681Y238682D01*
Y247047D01*
X340596Y247473D01*
X340354Y247835D01*
X337728Y250461D01*
Y255856D01*
Y269282D01*
X337727Y269283D01*
X337706Y269774D01*
X337706Y269774D01*
X337706Y269774D01*
Y273632D01*
X335522D01*
Y272611D01*
X335060Y272420D01*
X333858Y273622D01*
X333497Y273863D01*
X333071Y273948D01*
X330382D01*
X325523Y278808D01*
Y290090D01*
X328400Y292967D01*
X328731Y293298D01*
Y293298D01*
X328731Y293298D01*
X334261D01*
Y296860D01*
D02*
G37*
G36*
X343513Y270777D02*
X339656D01*
Y268593D01*
X343513D01*
Y270777D01*
D02*
G37*
G36*
X347638Y297092D02*
X346943Y296953D01*
X346354Y296560D01*
X346108Y296192D01*
X344390D01*
X344165Y296528D01*
X343772Y296791D01*
X343307Y296883D01*
X340158D01*
X339693Y296791D01*
X339299Y296528D01*
X339036Y296134D01*
X338944Y295669D01*
Y294488D01*
X339036Y294024D01*
X339299Y293630D01*
X339514Y293486D01*
X339514Y293485D01*
Y292932D01*
X339514Y292931D01*
X339299Y292788D01*
X339036Y292394D01*
X338944Y291929D01*
Y290748D01*
X339036Y290283D01*
X339299Y289890D01*
X339514Y289746D01*
X339514Y289745D01*
Y289192D01*
X339514Y289191D01*
X339299Y289047D01*
X339036Y288653D01*
X338944Y288189D01*
Y287008D01*
X339036Y286543D01*
X339299Y286150D01*
X339693Y285886D01*
X340158Y285794D01*
X340318D01*
Y284838D01*
X339354Y283874D01*
X339047Y283415D01*
X338940Y282874D01*
Y282687D01*
X338376D01*
Y276368D01*
X342332D01*
Y278113D01*
X344690D01*
X349176Y273627D01*
Y266862D01*
X341585D01*
X341477Y266840D01*
X339656D01*
Y264656D01*
X341477D01*
X341585Y264634D01*
X349176D01*
Y261033D01*
X348613D01*
Y258987D01*
X341585D01*
X341477Y258966D01*
X339656D01*
Y256782D01*
X341477D01*
X341585Y256761D01*
X348613D01*
Y254715D01*
X349176D01*
Y253560D01*
X348716Y253253D01*
X348322Y252663D01*
X348184Y251969D01*
X348322Y251273D01*
X348716Y250684D01*
X349305Y250291D01*
X350000Y250152D01*
X350695Y250291D01*
X351284Y250684D01*
X351678Y251273D01*
X351795Y251865D01*
X351897Y252018D01*
X352005Y252559D01*
Y254715D01*
X352569D01*
Y261033D01*
X352005D01*
Y274213D01*
X351897Y274754D01*
X351591Y275213D01*
X346276Y280528D01*
X345817Y280835D01*
X345276Y280942D01*
X342332D01*
Y282687D01*
X342332Y282687D01*
X342332D01*
X342566Y283085D01*
X342733Y283252D01*
X343039Y283711D01*
X343147Y284252D01*
Y285794D01*
X343307D01*
X343772Y285886D01*
X344165Y286150D01*
X344428Y286543D01*
X344521Y287008D01*
Y288189D01*
X344428Y288653D01*
X344165Y289047D01*
X343951Y289191D01*
X343950Y289192D01*
Y289745D01*
X343951Y289746D01*
X344165Y289890D01*
X344428Y290283D01*
X344521Y290748D01*
Y291929D01*
X344428Y292394D01*
X344165Y292788D01*
X343951Y292931D01*
X343950Y292932D01*
Y293485D01*
X343951Y293486D01*
X344165Y293630D01*
X344390Y293965D01*
X346393D01*
X346943Y293598D01*
X347638Y293460D01*
X348333Y293598D01*
X348922Y293991D01*
X349316Y294581D01*
X349454Y295276D01*
X349316Y295971D01*
X348922Y296560D01*
X348333Y296953D01*
X347638Y297092D01*
D02*
G37*
G36*
X364173Y307725D02*
X362226Y307572D01*
X360326Y307116D01*
X358521Y306368D01*
X356856Y305347D01*
X355370Y304079D01*
X354101Y302593D01*
X353081Y300927D01*
X352333Y299123D01*
X351877Y297223D01*
X351724Y295276D01*
X351877Y293328D01*
X352333Y291428D01*
X353081Y289624D01*
X354101Y287958D01*
X355370Y286473D01*
X356856Y285204D01*
X358521Y284183D01*
X360326Y283436D01*
X362226Y282979D01*
X364173Y282826D01*
X366121Y282979D01*
X368020Y283436D01*
X369825Y284183D01*
X371491Y285204D01*
X372976Y286473D01*
X374245Y287958D01*
X375266Y289624D01*
X376013Y291428D01*
X376469Y293328D01*
X376623Y295276D01*
X376469Y297223D01*
X376013Y299123D01*
X375266Y300927D01*
X374245Y302593D01*
X372976Y304079D01*
X371491Y305347D01*
X369825Y306368D01*
X368020Y307116D01*
X366121Y307572D01*
X364173Y307725D01*
D02*
G37*
G36*
X305118D02*
X303171Y307572D01*
X301271Y307116D01*
X299466Y306368D01*
X297800Y305347D01*
X296315Y304079D01*
X295046Y302593D01*
X294026Y300927D01*
X293278Y299123D01*
X292822Y297223D01*
X292669Y295276D01*
X292822Y293328D01*
X293278Y291428D01*
X294026Y289624D01*
X295046Y287958D01*
X296315Y286473D01*
X297800Y285204D01*
X299466Y284183D01*
X301271Y283436D01*
X303171Y282979D01*
X305118Y282826D01*
X307066Y282979D01*
X308965Y283436D01*
X310770Y284183D01*
X312436Y285204D01*
X313921Y286473D01*
X315190Y287958D01*
X316211Y289624D01*
X316958Y291428D01*
X317414Y293328D01*
X317567Y295276D01*
X317414Y297223D01*
X316958Y299123D01*
X316211Y300927D01*
X315190Y302593D01*
X313921Y304079D01*
X312436Y305347D01*
X310770Y306368D01*
X308965Y307116D01*
X307066Y307572D01*
X305118Y307725D01*
D02*
G37*
%LPD*%
D10*
X340354Y279528D02*
D03*
X332874D02*
D03*
X350590Y257874D02*
D03*
X358071D02*
D03*
X320669Y255118D02*
D03*
X313189D02*
D03*
X320669Y263386D02*
D03*
X313189D02*
D03*
D11*
X341585Y263779D02*
D03*
Y265748D02*
D03*
Y267717D02*
D03*
Y269685D02*
D03*
Y261811D02*
D03*
Y259842D02*
D03*
Y257874D02*
D03*
X331644D02*
D03*
Y259842D02*
D03*
Y261811D02*
D03*
Y269685D02*
D03*
Y267717D02*
D03*
Y265748D02*
D03*
Y263779D02*
D03*
D12*
X336614Y255856D02*
D03*
Y271703D02*
D03*
D13*
X331496Y295079D02*
D03*
D14*
Y291339D02*
D03*
Y287598D02*
D03*
X341732D02*
D03*
Y291339D02*
D03*
Y295079D02*
D03*
D15*
X331644Y269685D02*
X333041D01*
X333071Y272835D02*
X335030Y270876D01*
Y269922D02*
Y270876D01*
Y269922D02*
X335670Y269282D01*
X336614D01*
X347441Y295079D02*
X347638Y295276D01*
X341732Y295079D02*
X347441D01*
X324410Y290551D02*
X328937Y295079D01*
X324410Y278346D02*
Y290551D01*
Y278346D02*
X329921Y272835D01*
X341585Y265748D02*
X350295D01*
X336614Y255856D02*
Y269282D01*
X329921Y272835D02*
X333071D01*
X328937Y295079D02*
X331496D01*
X326378Y259449D02*
Y259842D01*
Y259449D02*
X328346Y257480D01*
X329724Y234252D02*
Y242717D01*
X328346Y244094D02*
X329724Y242717D01*
X328346Y244094D02*
Y257480D01*
X328740Y257874D01*
X331644D01*
X339567Y234252D02*
Y247047D01*
X336614Y250000D02*
X339567Y247047D01*
X336614Y250000D02*
Y255856D01*
X341585Y257874D02*
X350590D01*
X320669Y263386D02*
X326772D01*
X328346Y261811D01*
X331644D01*
D16*
X329134Y279921D02*
X332480D01*
X332874Y279528D01*
X358071Y257874D02*
X362598D01*
X308661Y263386D02*
X313189D01*
X308661Y255118D02*
X313189D01*
D17*
X350590Y257874D02*
Y274213D01*
X331496Y287598D02*
Y291339D01*
X332874Y279528D02*
Y283268D01*
X331496Y284646D02*
X332874Y283268D01*
X331496Y284646D02*
Y287598D01*
X341732Y284252D02*
Y287598D01*
X340354Y282874D02*
X341732Y284252D01*
X340354Y279528D02*
Y282874D01*
Y279528D02*
X345276D01*
X350590Y274213D01*
X350000Y251969D02*
X350590Y252559D01*
Y257874D01*
X320669Y255118D02*
X325590D01*
X320669D02*
Y263386D01*
Y247835D02*
Y255118D01*
X319882Y247047D02*
X320669Y247835D01*
X319882Y234252D02*
Y247047D01*
D18*
X349410Y234252D02*
D03*
X339567D02*
D03*
X329724D02*
D03*
D19*
X319882D02*
D03*
D20*
X364173Y295276D02*
D03*
X305118D02*
D03*
D21*
X329134Y279921D02*
D03*
X362598Y257874D02*
D03*
X308661Y263386D02*
D03*
Y255118D02*
D03*
X347638Y295276D02*
D03*
X326378Y259842D02*
D03*
X350000Y251969D02*
D03*
X325590Y255118D02*
D03*
M02*
