G04*
G04 #@! TF.GenerationSoftware,Altium Limited,CircuitStudio,1.5.2 (30)*
G04*
G04 Layer_Color=20142*
%FSLAX25Y25*%
%MOIN*%
G70*
G01*
G75*
%ADD45R,0.05918X0.03556*%
%ADD46R,0.03556X0.05918*%
%ADD47R,0.13740X0.13740*%
%ADD48R,0.02126X0.02717*%
%ADD49R,0.02717X0.02126*%
%ADD50R,0.05354X0.02992*%
%ADD51R,0.05276X0.02913*%
%ADD52R,0.15800X0.11800*%
%ADD53R,0.02729X0.02572*%
%ADD54R,0.02769X0.04737*%
G04:AMPARAMS|DCode=55|XSize=62.6mil|YSize=23.23mil|CornerRadius=7.19mil|HoleSize=0mil|Usage=FLASHONLY|Rotation=0.000|XOffset=0mil|YOffset=0mil|HoleType=Round|Shape=RoundedRectangle|*
%AMROUNDEDRECTD55*
21,1,0.06260,0.00886,0,0,0.0*
21,1,0.04823,0.02323,0,0,0.0*
1,1,0.01437,0.02411,-0.00443*
1,1,0.01437,-0.02411,-0.00443*
1,1,0.01437,-0.02411,0.00443*
1,1,0.01437,0.02411,0.00443*
%
%ADD55ROUNDEDRECTD55*%
%ADD56R,0.06260X0.02323*%
%ADD57R,0.11800X0.15800*%
%ADD58R,0.02769X0.03950*%
%ADD59C,0.03162*%
%ADD60C,0.12611*%
%ADD61R,0.12611X0.12611*%
%ADD62C,0.08674*%
%ADD63R,0.08674X0.08674*%
%ADD64C,0.24422*%
%ADD65C,0.07099*%
%ADD66R,0.07099X0.07099*%
%ADD67R,0.07887X0.07887*%
%ADD68C,0.07887*%
D45*
X424299Y687307D02*
D03*
Y694787D02*
D03*
X410520Y661717D02*
D03*
Y669197D02*
D03*
X550283Y726284D02*
D03*
Y718803D02*
D03*
X426268Y661717D02*
D03*
Y669197D02*
D03*
X442016D02*
D03*
Y661717D02*
D03*
X371150Y588488D02*
D03*
Y581008D02*
D03*
X359339D02*
D03*
Y588488D02*
D03*
X487291Y742031D02*
D03*
Y734551D02*
D03*
X503039Y742031D02*
D03*
Y734551D02*
D03*
D46*
X349299Y757976D02*
D03*
X341819D02*
D03*
X416622Y730417D02*
D03*
X424102D02*
D03*
Y740260D02*
D03*
X416622D02*
D03*
X524496Y624118D02*
D03*
X517016D02*
D03*
X548512Y626087D02*
D03*
X555992D02*
D03*
Y618213D02*
D03*
X548512D02*
D03*
X501268Y643803D02*
D03*
X508748D02*
D03*
X501268Y624118D02*
D03*
X508748D02*
D03*
X493000Y673331D02*
D03*
X485520D02*
D03*
D47*
X538472Y641835D02*
D03*
D48*
Y650693D02*
D03*
X541032D02*
D03*
X543590D02*
D03*
X535913D02*
D03*
X533354D02*
D03*
X538472Y632976D02*
D03*
X535913D02*
D03*
X533354D02*
D03*
X541032D02*
D03*
X543590D02*
D03*
D49*
X547331Y641835D02*
D03*
Y639276D02*
D03*
Y636717D02*
D03*
Y644394D02*
D03*
Y646953D02*
D03*
X529614Y636717D02*
D03*
Y639276D02*
D03*
Y646953D02*
D03*
Y644394D02*
D03*
Y641835D02*
D03*
D50*
X368433Y600496D02*
D03*
Y604236D02*
D03*
Y596756D02*
D03*
X358118D02*
D03*
Y600496D02*
D03*
Y604236D02*
D03*
D51*
X436504Y691047D02*
D03*
Y687307D02*
D03*
Y694787D02*
D03*
X447528D02*
D03*
Y687307D02*
D03*
D52*
X404614Y620896D02*
D03*
Y648994D02*
D03*
D53*
X415874Y720575D02*
D03*
X424850D02*
D03*
D54*
X340441Y604433D02*
D03*
X342803D02*
D03*
D55*
X537291Y726382D02*
D03*
Y723823D02*
D03*
Y721264D02*
D03*
Y718705D02*
D03*
X519969D02*
D03*
Y721264D02*
D03*
Y723823D02*
D03*
D56*
Y726382D02*
D03*
D57*
X489530Y630023D02*
D03*
X461431D02*
D03*
D58*
X491819Y663685D02*
D03*
X486701D02*
D03*
X489260Y655417D02*
D03*
D59*
X542410Y637898D02*
D03*
X534535D02*
D03*
X538472D02*
D03*
X542410Y641835D02*
D03*
Y645772D02*
D03*
X538472D02*
D03*
X534535D02*
D03*
Y641835D02*
D03*
X538472D02*
D03*
D60*
X528630Y594591D02*
D03*
X424299D02*
D03*
D61*
X508945D02*
D03*
X404614D02*
D03*
D62*
X332764Y634236D02*
D03*
Y644236D02*
D03*
Y654236D02*
D03*
Y664236D02*
D03*
Y674236D02*
D03*
Y684236D02*
D03*
Y694236D02*
D03*
Y704236D02*
D03*
Y714236D02*
D03*
Y724236D02*
D03*
Y734236D02*
D03*
D63*
Y624236D02*
D03*
D64*
X560126Y775693D02*
D03*
X331780Y582780D02*
D03*
X560126D02*
D03*
D65*
X540953Y770693D02*
D03*
Y780693D02*
D03*
X510953Y770693D02*
D03*
Y780693D02*
D03*
X520953D02*
D03*
Y770693D02*
D03*
X530953Y780693D02*
D03*
Y770693D02*
D03*
X500953D02*
D03*
Y780693D02*
D03*
X490953Y770693D02*
D03*
Y780693D02*
D03*
X480953D02*
D03*
Y770693D02*
D03*
X420953D02*
D03*
Y780693D02*
D03*
X430953D02*
D03*
Y770693D02*
D03*
X440953Y780693D02*
D03*
Y770693D02*
D03*
X470953D02*
D03*
Y780693D02*
D03*
X460953Y770693D02*
D03*
Y780693D02*
D03*
X450953D02*
D03*
Y770693D02*
D03*
X390953D02*
D03*
Y780693D02*
D03*
X400953D02*
D03*
Y770693D02*
D03*
X410953Y780693D02*
D03*
Y770693D02*
D03*
X380953D02*
D03*
Y780693D02*
D03*
X370953Y770693D02*
D03*
Y780693D02*
D03*
X360953D02*
D03*
Y770693D02*
D03*
X350953Y780693D02*
D03*
D66*
Y770693D02*
D03*
D67*
X472528Y605221D02*
D03*
D68*
X482370D02*
D03*
M02*
