G04*
G04 #@! TF.GenerationSoftware,Altium Limited,CircuitStudio,1.5.2 (30)*
G04*
G04 Layer_Color=11767835*
%FSLAX25Y25*%
%MOIN*%
G70*
G01*
G75*
%ADD11R,0.09843X0.03543*%
G04:AMPARAMS|DCode=12|XSize=35.43mil|YSize=98.43mil|CornerRadius=0mil|HoleSize=0mil|Usage=FLASHONLY|Rotation=67.500|XOffset=0mil|YOffset=0mil|HoleType=Round|Shape=Rectangle|*
%AMROTATEDRECTD12*
4,1,4,0.03869,-0.03520,-0.05225,0.00247,-0.03869,0.03520,0.05225,-0.00247,0.03869,-0.03520,0.0*
%
%ADD12ROTATEDRECTD12*%

G04:AMPARAMS|DCode=13|XSize=35.43mil|YSize=98.43mil|CornerRadius=0mil|HoleSize=0mil|Usage=FLASHONLY|Rotation=225.000|XOffset=0mil|YOffset=0mil|HoleType=Round|Shape=Rectangle|*
%AMROTATEDRECTD13*
4,1,4,-0.02227,0.04733,0.04733,-0.02227,0.02227,-0.04733,-0.04733,0.02227,-0.02227,0.04733,0.0*
%
%ADD13ROTATEDRECTD13*%

G04:AMPARAMS|DCode=14|XSize=35.43mil|YSize=98.43mil|CornerRadius=0mil|HoleSize=0mil|Usage=FLASHONLY|Rotation=22.500|XOffset=0mil|YOffset=0mil|HoleType=Round|Shape=Rectangle|*
%AMROTATEDRECTD14*
4,1,4,0.00247,-0.05225,-0.03520,0.03869,-0.00247,0.05225,0.03520,-0.03869,0.00247,-0.05225,0.0*
%
%ADD14ROTATEDRECTD14*%

%ADD15R,0.03543X0.09843*%
G04:AMPARAMS|DCode=16|XSize=35.43mil|YSize=98.43mil|CornerRadius=0mil|HoleSize=0mil|Usage=FLASHONLY|Rotation=337.500|XOffset=0mil|YOffset=0mil|HoleType=Round|Shape=Rectangle|*
%AMROTATEDRECTD16*
4,1,4,-0.03520,-0.03869,0.00247,0.05225,0.03520,0.03869,-0.00247,-0.05225,-0.03520,-0.03869,0.0*
%
%ADD16ROTATEDRECTD16*%

G04:AMPARAMS|DCode=17|XSize=35.43mil|YSize=98.43mil|CornerRadius=0mil|HoleSize=0mil|Usage=FLASHONLY|Rotation=135.000|XOffset=0mil|YOffset=0mil|HoleType=Round|Shape=Rectangle|*
%AMROTATEDRECTD17*
4,1,4,0.04733,0.02227,-0.02227,-0.04733,-0.04733,-0.02227,0.02227,0.04733,0.04733,0.02227,0.0*
%
%ADD17ROTATEDRECTD17*%

G04:AMPARAMS|DCode=18|XSize=35.43mil|YSize=98.43mil|CornerRadius=0mil|HoleSize=0mil|Usage=FLASHONLY|Rotation=292.500|XOffset=0mil|YOffset=0mil|HoleType=Round|Shape=Rectangle|*
%AMROTATEDRECTD18*
4,1,4,-0.05225,-0.00247,0.03869,0.03520,0.05225,0.00247,-0.03869,-0.03520,-0.05225,-0.00247,0.0*
%
%ADD18ROTATEDRECTD18*%

%ADD20C,0.07874*%
D11*
X702500Y797949D02*
D03*
Y786531D02*
D03*
Y774327D02*
D03*
Y762910D02*
D03*
Y629051D02*
D03*
Y640469D02*
D03*
Y652673D02*
D03*
Y664090D02*
D03*
D12*
X721408Y759148D02*
D03*
X725777Y769697D02*
D03*
X730448Y780972D02*
D03*
X734817Y791521D02*
D03*
X683592Y667852D02*
D03*
X679223Y657303D02*
D03*
X674552Y646028D02*
D03*
X670183Y635479D02*
D03*
D13*
X762214Y773214D02*
D03*
X754141Y765141D02*
D03*
X745511Y756511D02*
D03*
X737438Y748438D02*
D03*
X642786Y653786D02*
D03*
X650859Y661859D02*
D03*
X659489Y670489D02*
D03*
X667562Y678562D02*
D03*
D14*
X748148Y732408D02*
D03*
X758697Y736777D02*
D03*
X769972Y741448D02*
D03*
X780521Y745817D02*
D03*
X656852Y694592D02*
D03*
X646303Y690223D02*
D03*
X635028Y685552D02*
D03*
X624479Y681183D02*
D03*
D15*
X786949Y713500D02*
D03*
X775531D02*
D03*
X763327D02*
D03*
X751909D02*
D03*
X618051D02*
D03*
X629468D02*
D03*
X641673D02*
D03*
X653090D02*
D03*
D16*
X748148Y694592D02*
D03*
X758697Y690223D02*
D03*
X769972Y685552D02*
D03*
X780521Y681183D02*
D03*
X656852Y732408D02*
D03*
X646303Y736777D02*
D03*
X635028Y741448D02*
D03*
X624479Y745817D02*
D03*
D17*
X762214Y653786D02*
D03*
X754141Y661860D02*
D03*
X745511Y670489D02*
D03*
X737438Y678562D02*
D03*
X642786Y773214D02*
D03*
X650859Y765141D02*
D03*
X659489Y756511D02*
D03*
X667562Y748438D02*
D03*
D18*
X721408Y667852D02*
D03*
X725777Y657303D02*
D03*
X730448Y646028D02*
D03*
X734817Y635479D02*
D03*
X683592Y759148D02*
D03*
X679223Y769697D02*
D03*
X674552Y780972D02*
D03*
X670183Y791521D02*
D03*
D20*
X690689Y790272D02*
D03*
X680847D02*
D03*
M02*
