M48
;Layer_Color=6321
;FILE_FORMAT=2:5
INCH,LZ
;TYPE=PLATED
T1F00S00C0.01181
T2F00S00C0.03150
T3F00S00C0.03543
T4F00S00C0.04724
T5F00S00C0.05118
T6F00S00C0.10630
%
T01
X0347528Y0598528
X0442016Y0657583
X0424299Y0681205
X0398709Y0710732
X0408551Y0724512
Y074026
X0426268Y0746165
X0428236Y0750102
X0461701Y072648
Y0716638
X0467606
Y0730417
X0377055Y0759945
X0493197Y0742228
X0499102Y072648
X0503039Y0730417
Y0720575
X0499102Y0714669
X0485323Y0681205
X0501071Y0649709
X0534535Y0645772
X0538472
X054241
Y0641835
Y0637898
X0538472
X0534535
Y0641835
X0538472
X054241Y0626087
X0532567
X0550283Y0714669
T02
X0350953Y0770693
X0360953
X0370953
X0380953
X0390953
Y0780693
X0400953
Y0770693
X0410953
X0420953
Y0780693
X0430953
Y0770693
X0440953
Y0780693
X0450953
X0460953
Y0770693
X0450953
X0410953Y0780693
X0380953
X0370953
X0360953
X0350953
X0470953
X0480953
X0490953
X0500953
X0510953
Y0770693
X0520953
Y0780693
X0530953
X0540953
Y0770693
X0530953
X0500953
X0490953
X0480953
X0470953
T03
X0472528Y0605221
X048237
T04
X0332764Y0624236
Y0634236
Y0644236
Y0654236
Y0664236
Y0674236
Y0684236
Y0694236
Y0704236
Y0714236
Y0724236
Y0734236
T05
X0508945Y0594591
X052863
X0424299
X0404614
T06
X0560126Y058278
X033178
X0560126Y0775693
M30
