G04*
G04 #@! TF.GenerationSoftware,Altium Limited,CircuitStudio,1.5.2 (1.5.2.30)*
G04*
G04 Layer_Color=15065295*
%FSLAX25Y25*%
%MOIN*%
G70*
G01*
G75*
%ADD35C,0.01000*%
%ADD54C,0.00500*%
%ADD55C,0.00700*%
D35*
X1735441Y934791D02*
G03*
X1735441Y934791I-394J0D01*
G01*
X1890559Y941091D02*
G03*
X1890559Y941091I-394J0D01*
G01*
X1911425Y1042272D02*
G03*
X1911425Y1042272I-394J0D01*
G01*
X1682882Y931642D02*
G03*
X1682882Y931642I-197J0D01*
G01*
X2013394Y965697D02*
X2037016D01*
X2013394D02*
Y1015697D01*
X2037016D01*
Y965697D02*
Y1015697D01*
X2013394Y898768D02*
X2037016D01*
X2013394D02*
Y948768D01*
X2037016D01*
Y898768D02*
Y948768D01*
X1858866Y861957D02*
Y906051D01*
X1888394D01*
Y861957D02*
Y906051D01*
X1890362Y861957D02*
Y906051D01*
X1919890D01*
Y861957D02*
Y906051D01*
X1951583Y861169D02*
Y891091D01*
X1992528D01*
Y861169D02*
Y891091D01*
X1875205Y1002508D02*
Y1026130D01*
X1915362D01*
Y1002508D02*
Y1026130D01*
X1875205Y1002508D02*
X1915362D01*
X1926386D02*
X1966543D01*
Y1026130D01*
X1926386D02*
X1966543D01*
X1926386Y1002508D02*
Y1026130D01*
X1813787Y861169D02*
Y891091D01*
X1854732D01*
Y861169D02*
Y891091D01*
X1666543Y862744D02*
Y886366D01*
X1696858D01*
Y862744D02*
Y886366D01*
X1666543Y862744D02*
X1696858D01*
X1706898D02*
Y886366D01*
X1756898D01*
Y862744D02*
Y886366D01*
X1706898Y862744D02*
X1756898D01*
X1874220Y969043D02*
Y992665D01*
X1924220D01*
Y969043D02*
Y992665D01*
X1874220Y969043D02*
X1924220D01*
X1722055Y922193D02*
Y933216D01*
Y922193D02*
X1733866D01*
Y933216D01*
X1722449D02*
X1733866D01*
X1722055D02*
X1722449D01*
X1960638Y964122D02*
X1961819D01*
X1964772Y967075D01*
Y986760D02*
Y992272D01*
Y994634D01*
X1961819Y997587D02*
X1964772Y994634D01*
Y967075D02*
Y974949D01*
X1961032Y997587D02*
X1961819D01*
X1931307Y964122D02*
Y974949D01*
Y986760D02*
Y997587D01*
Y964122D02*
X1960638D01*
X1931307Y997587D02*
X1961032D01*
X1955717Y992370D02*
X1963394D01*
X1959555Y988531D02*
Y996209D01*
X1936524Y988531D02*
Y996209D01*
X1813000Y1075500D02*
X2013000D01*
Y1055500D02*
Y1075500D01*
X1813000Y1055500D02*
X2013000D01*
X1813000D02*
Y1075500D01*
Y1057000D02*
X1814500Y1055500D01*
X1885441Y943453D02*
X1887409D01*
X1885441D02*
Y945421D01*
X1903157Y943453D02*
X1905126D01*
Y945421D01*
Y961169D02*
Y963138D01*
X1903157D02*
X1905126D01*
X1885441D02*
X1887409D01*
X1885441Y961169D02*
Y963138D01*
X1979929Y1004476D02*
X1999614D01*
X1979929Y984791D02*
Y1004476D01*
Y984791D02*
X1995677D01*
X1999614Y988728D01*
Y1004476D01*
X1981898Y941484D02*
X2001583D01*
X1981898Y921799D02*
Y941484D01*
Y921799D02*
X1997646D01*
X2001583Y925736D01*
Y941484D01*
X1914968Y1030067D02*
Y1041878D01*
Y1030067D02*
X1922842D01*
Y1041878D01*
X1914968D02*
X1922842D01*
X1809260Y1040894D02*
Y1046799D01*
X1795874D02*
X1809260D01*
X1795874Y1040894D02*
Y1046799D01*
Y1040894D02*
X1809260D01*
X1810638D01*
Y1046799D01*
X1809260D02*
X1810638D01*
X1960638Y928689D02*
X1961819D01*
X1964772Y931642D01*
Y951327D02*
Y956839D01*
Y959201D01*
X1961819Y962154D02*
X1964772Y959201D01*
Y931642D02*
Y939516D01*
X1961032Y962154D02*
X1961819D01*
X1931307Y928689D02*
Y939516D01*
Y951327D02*
Y962154D01*
Y928689D02*
X1960638D01*
X1931307Y962154D02*
X1961032D01*
X1955717Y956937D02*
X1963394D01*
X1959555Y953098D02*
Y960776D01*
X1936524Y953098D02*
Y960776D01*
X1657291Y992862D02*
Y1055461D01*
Y992862D02*
X1719890D01*
Y1055461D01*
X1657291D02*
X1719890D01*
X1657291Y1051721D02*
X1661032Y1055461D01*
X1655913Y1050933D02*
Y1056839D01*
X1661819D01*
X1906307Y915106D02*
X1908669D01*
X1906307D02*
Y923768D01*
X1915756Y915106D02*
Y923768D01*
X1913394Y915106D02*
X1915756D01*
X1874811D02*
X1877173D01*
X1874811D02*
Y923768D01*
X1884260Y915106D02*
Y923768D01*
X1881898Y915106D02*
X1884260D01*
X1683866Y932429D02*
X1693315D01*
Y932035D02*
Y932429D01*
Y922980D02*
Y923374D01*
X1683866Y922980D02*
X1693315D01*
X1683866D02*
Y923374D01*
Y932035D02*
Y932429D01*
X1817724Y976130D02*
Y1024949D01*
X1866543D01*
Y976130D02*
Y1024949D01*
X1817724Y976130D02*
X1866543D01*
X1880233Y997966D02*
X1879566Y998633D01*
X1878233D01*
X1877567Y997966D01*
Y997300D01*
X1878233Y996633D01*
X1879566D01*
X1880233Y995967D01*
Y995300D01*
X1879566Y994634D01*
X1878233D01*
X1877567Y995300D01*
X1883565Y998633D02*
X1882232D01*
X1881566Y997966D01*
Y995300D01*
X1882232Y994634D01*
X1883565D01*
X1884231Y995300D01*
Y997966D01*
X1883565Y998633D01*
X1885564D02*
Y994634D01*
X1888230D01*
X1889563D02*
Y997300D01*
X1890896Y998633D01*
X1892229Y997300D01*
Y994634D01*
Y996633D01*
X1889563D01*
X1893562Y994634D02*
Y998633D01*
X1895561D01*
X1896228Y997966D01*
Y996633D01*
X1895561Y995967D01*
X1893562D01*
X1894895D02*
X1896228Y994634D01*
X1901559Y998633D02*
Y994634D01*
X1903559D01*
X1904225Y995300D01*
Y997966D01*
X1903559Y998633D01*
X1901559D01*
X1905558Y994634D02*
Y997300D01*
X1906891Y998633D01*
X1908224Y997300D01*
Y994634D01*
Y996633D01*
X1905558D01*
X1909557Y998633D02*
X1912222D01*
X1910889D01*
Y994634D01*
X1913555D02*
Y997300D01*
X1914888Y998633D01*
X1916221Y997300D01*
Y994634D01*
Y996633D01*
X1913555D01*
X1873630Y1030067D02*
X1870802Y1032894D01*
X1872216Y1034308D01*
X1873159D01*
X1874101Y1033366D01*
Y1032423D01*
X1872687Y1031009D01*
X1876457Y1032894D02*
X1874572Y1034779D01*
X1874572Y1036664D01*
X1876457D01*
X1878342Y1034779D01*
X1876929Y1036193D01*
X1875044Y1034308D01*
X1879285Y1035722D02*
X1876457Y1038550D01*
X1881170Y1037607D01*
X1878342Y1040434D01*
X1882584Y1038078D02*
X1884469Y1039963D01*
X1884940Y1041377D02*
X1883055Y1043262D01*
Y1045147D01*
X1884940Y1045147D01*
X1886825Y1043262D01*
X1885411Y1044676D01*
X1883526Y1042791D01*
X1884940Y1047032D02*
X1887767Y1044205D01*
X1889181Y1045618D01*
Y1046561D01*
X1887296Y1048446D01*
X1886354D01*
X1884940Y1047032D01*
X1890124Y1051273D02*
X1889181D01*
X1888239Y1050331D01*
Y1049388D01*
X1890124Y1047503D01*
X1891066D01*
X1892009Y1048446D01*
Y1049388D01*
X1928748Y1045877D02*
X1931414D01*
X1930081D01*
Y1041878D01*
X1932747Y1045877D02*
X1934080D01*
X1933413D01*
Y1041878D01*
X1932747D01*
X1934080D01*
X1936079Y1045877D02*
Y1041878D01*
X1938745D01*
X1940078Y1045877D02*
X1942743D01*
X1941411D01*
Y1041878D01*
X1944076Y1041212D02*
X1946742D01*
X1948075Y1041878D02*
Y1044544D01*
X1949408Y1045877D01*
X1950741Y1044544D01*
Y1041878D01*
Y1043877D01*
X1948075D01*
X1952074Y1045877D02*
Y1041878D01*
X1954073D01*
X1954740Y1042544D01*
Y1045210D01*
X1954073Y1045877D01*
X1952074D01*
X1958738Y1045210D02*
X1958072Y1045877D01*
X1956739D01*
X1956073Y1045210D01*
Y1042544D01*
X1956739Y1041878D01*
X1958072D01*
X1958738Y1042544D01*
X2019299Y1022255D02*
X2021965D01*
X2020632D01*
Y1018256D01*
X2023298Y1022255D02*
X2024631D01*
X2023964D01*
Y1018256D01*
X2023298D01*
X2024631D01*
X2026630Y1022255D02*
Y1018256D01*
X2029296D01*
X2030629Y1022255D02*
X2033295D01*
X2031962D01*
Y1018256D01*
X2019299Y951327D02*
Y955326D01*
X2021299D01*
X2021965Y954659D01*
Y953326D01*
X2021299Y952660D01*
X2019299D01*
X2023298Y951327D02*
Y953993D01*
X2024631Y955326D01*
X2025964Y953993D01*
Y951327D01*
Y953326D01*
X2023298D01*
X2027297Y951327D02*
Y955326D01*
X2029962Y951327D01*
Y955326D01*
X1952370Y896270D02*
X1955036D01*
X1953703D01*
Y892272D01*
X1959035Y896270D02*
X1956369D01*
Y892272D01*
X1959035D01*
X1956369Y894271D02*
X1957702D01*
X1960368Y892272D02*
Y896270D01*
X1961700Y894937D01*
X1963033Y896270D01*
Y892272D01*
X1964366D02*
Y896270D01*
X1966366D01*
X1967032Y895604D01*
Y894271D01*
X1966366Y893605D01*
X1964366D01*
X1972364Y892272D02*
Y896270D01*
X1974363D01*
X1975029Y895604D01*
Y894271D01*
X1974363Y893605D01*
X1972364D01*
X1976362Y892272D02*
Y896270D01*
X1978362D01*
X1979028Y895604D01*
Y894271D01*
X1978362Y893605D01*
X1976362D01*
X1977695D02*
X1979028Y892272D01*
X1982360Y896270D02*
X1981027D01*
X1980361Y895604D01*
Y892938D01*
X1981027Y892272D01*
X1982360D01*
X1983027Y892938D01*
Y895604D01*
X1982360Y896270D01*
X1984360D02*
Y892272D01*
X1986359D01*
X1987026Y892938D01*
Y893605D01*
X1986359Y894271D01*
X1984360D01*
X1986359D01*
X1987026Y894937D01*
Y895604D01*
X1986359Y896270D01*
X1984360D01*
X1991024D02*
X1988358D01*
Y892272D01*
X1991024D01*
X1988358Y894271D02*
X1989691D01*
X1899918Y912018D02*
X1897252D01*
Y910019D01*
X1898585D01*
X1897252D01*
Y908020D01*
X1901251D02*
Y910686D01*
X1902584Y912018D01*
X1903917Y910686D01*
Y908020D01*
Y910019D01*
X1901251D01*
X1905249Y908020D02*
Y912018D01*
X1907915Y908020D01*
Y912018D01*
X1861819D02*
Y908020D01*
Y910019D01*
X1864485D01*
Y912018D01*
Y908020D01*
X1868483Y912018D02*
X1865818D01*
Y908020D01*
X1868483D01*
X1865818Y910019D02*
X1867150D01*
X1869816Y908020D02*
Y910686D01*
X1871149Y912018D01*
X1872482Y910686D01*
Y908020D01*
Y910019D01*
X1869816D01*
X1873815Y912018D02*
X1876481D01*
X1875148D01*
Y908020D01*
X1880479Y912018D02*
X1877814D01*
Y908020D01*
X1880479D01*
X1877814Y910019D02*
X1879147D01*
X1881812Y908020D02*
Y912018D01*
X1883812D01*
X1884478Y911352D01*
Y910019D01*
X1883812Y909353D01*
X1881812D01*
X1883145D02*
X1884478Y908020D01*
X1826386Y896209D02*
Y902207D01*
X1829385D01*
X1830384Y901207D01*
Y899208D01*
X1829385Y898208D01*
X1826386D01*
X1832384Y902207D02*
Y896209D01*
X1834383Y898208D01*
X1836383Y896209D01*
Y902207D01*
X1838382Y896209D02*
Y902207D01*
X1841381D01*
X1842381Y901207D01*
Y899208D01*
X1841381Y898208D01*
X1838382D01*
X1840381D02*
X1842381Y896209D01*
X1724024Y894333D02*
X1726023D01*
X1725023D01*
Y888335D01*
X1724024D01*
X1726023D01*
X1733021D02*
X1729022D01*
X1733021Y892333D01*
Y893333D01*
X1732021Y894333D01*
X1730022D01*
X1729022Y893333D01*
X1739019D02*
X1738019Y894333D01*
X1736020D01*
X1735020Y893333D01*
Y889334D01*
X1736020Y888335D01*
X1738019D01*
X1739019Y889334D01*
X1672842Y894333D02*
Y888335D01*
X1676841D01*
X1682839Y894333D02*
X1678841D01*
Y888335D01*
X1682839D01*
X1678841Y891334D02*
X1680840D01*
X1684839Y894333D02*
Y888335D01*
X1687838D01*
X1688837Y889334D01*
Y893333D01*
X1687838Y894333D01*
X1684839D01*
D54*
X1895284Y1030657D02*
Y1037350D01*
X1883472Y1030657D02*
X1895284D01*
X1883472Y1037350D02*
X1895284D01*
X1883472Y1030657D02*
Y1037350D01*
X1700992Y917862D02*
X1707685D01*
X1700992D02*
Y929673D01*
X1707685Y917862D02*
Y929673D01*
X1700992D02*
X1707685D01*
X1980520Y1012350D02*
X1987213D01*
X1980520D02*
Y1024161D01*
X1987213Y1012350D02*
Y1024161D01*
X1980520D02*
X1987213D01*
X1990362D02*
X1997055D01*
Y1012350D02*
Y1024161D01*
X1990362Y1012350D02*
Y1024161D01*
Y1012350D02*
X1997055D01*
X2000205Y1024161D02*
X2006898D01*
Y1012350D02*
Y1024161D01*
X2000205Y1012350D02*
Y1024161D01*
Y1012350D02*
X2006898D01*
X1970677Y1024161D02*
X1977370D01*
Y1012350D02*
Y1024161D01*
X1970677Y1012350D02*
Y1024161D01*
Y1012350D02*
X1977370D01*
X1848039Y1032626D02*
Y1039319D01*
X1836228Y1032626D02*
X1848039D01*
X1836228Y1039319D02*
X1848039D01*
X1836228Y1032626D02*
Y1039319D01*
X1848039Y1040500D02*
Y1047193D01*
X1836228Y1040500D02*
X1848039D01*
X1836228Y1047193D02*
X1848039D01*
X1836228Y1040500D02*
Y1047193D01*
X1960835Y913531D02*
X1967528D01*
X1960835D02*
Y925342D01*
X1967528Y913531D02*
Y925342D01*
X1960835D02*
X1967528D01*
X1982488Y898965D02*
X1989181D01*
X1982488D02*
Y910776D01*
X1989181Y898965D02*
Y910776D01*
X1982488D02*
X1989181D01*
X1974614Y949752D02*
X1981307D01*
X1974614D02*
Y961563D01*
X1981307Y949752D02*
Y961563D01*
X1974614D02*
X1981307D01*
X1994299D02*
X2000992D01*
Y949752D02*
Y961563D01*
X1994299Y949752D02*
Y961563D01*
Y949752D02*
X2000992D01*
X2004142Y961563D02*
X2010835D01*
Y949752D02*
Y961563D01*
X2004142Y949752D02*
Y961563D01*
Y949752D02*
X2010835D01*
X1984457Y961563D02*
X1991150D01*
Y949752D02*
Y961563D01*
X1984457Y949752D02*
Y961563D01*
Y949752D02*
X1991150D01*
X1969496Y898965D02*
X1976189D01*
X1969496D02*
Y910776D01*
X1976189Y898965D02*
Y910776D01*
X1969496D02*
X1976189D01*
X1992331Y898965D02*
X1999024D01*
X1992331D02*
Y910776D01*
X1999024Y898965D02*
Y910776D01*
X1992331D02*
X1999024D01*
X2002173Y898965D02*
X2008866D01*
X2002173D02*
Y910776D01*
X2008866Y898965D02*
Y910776D01*
X2002173D02*
X2008866D01*
X2006110Y882429D02*
X2012803D01*
Y870618D02*
Y882429D01*
X2006110Y870618D02*
Y882429D01*
Y870618D02*
X2012803D01*
X1996268D02*
X2002961D01*
X1996268D02*
Y882429D01*
X2002961Y870618D02*
Y882429D01*
X1996268D02*
X2002961D01*
X1999614Y884988D02*
Y891681D01*
X2011425D01*
X1999614Y884988D02*
X2011425D01*
Y891681D01*
X1921189Y867961D02*
X1944181D01*
X1921189D02*
Y908709D01*
X1944181Y867961D02*
Y908709D01*
X1921189D02*
X1944181D01*
X1921189Y867075D02*
X1944181D01*
X1815854Y908335D02*
Y931327D01*
X1856602D01*
X1815854Y908335D02*
X1856602D01*
Y931327D01*
X1814968Y908335D02*
Y931327D01*
X1939181Y1039909D02*
X1945874D01*
Y1028098D02*
Y1039909D01*
X1939181Y1028098D02*
Y1039909D01*
Y1028098D02*
X1945874D01*
X1796858Y1028689D02*
Y1035382D01*
X1808669D01*
X1796858Y1028689D02*
X1808669D01*
Y1035382D01*
X1796858Y1016878D02*
Y1023571D01*
X1808669D01*
X1796858Y1016878D02*
X1808669D01*
Y1023571D01*
X1634063Y1016287D02*
X1640756D01*
X1634063D02*
Y1028098D01*
X1640756Y1016287D02*
Y1028098D01*
X1634063D02*
X1640756D01*
X1706307Y1064122D02*
Y1070815D01*
X1694496Y1064122D02*
X1706307D01*
X1694496Y1070815D02*
X1706307D01*
X1694496Y1064122D02*
Y1070815D01*
X1834260Y963728D02*
Y970421D01*
X1822449Y963728D02*
X1834260D01*
X1822449Y970421D02*
X1834260D01*
X1822449Y963728D02*
Y970421D01*
Y944043D02*
Y950736D01*
X1834260D01*
X1822449Y944043D02*
X1834260D01*
Y950736D01*
X1822449Y953886D02*
Y960579D01*
X1834260D01*
X1822449Y953886D02*
X1834260D01*
Y960579D01*
X1753551Y928295D02*
Y934988D01*
X1741740Y928295D02*
X1753551D01*
X1741740Y934988D02*
X1753551D01*
X1741740Y928295D02*
Y934988D01*
X1984457Y963138D02*
X1991150D01*
X1984457D02*
Y974949D01*
X1991150Y963138D02*
Y974949D01*
X1984457D02*
X1991150D01*
X1974614Y963138D02*
X1981307D01*
X1974614D02*
Y974949D01*
X1981307Y963138D02*
Y974949D01*
X1974614D02*
X1981307D01*
X1968709Y986760D02*
X1975402D01*
X1968709D02*
Y998571D01*
X1975402Y986760D02*
Y998571D01*
X1968709D02*
X1975402D01*
X2004142Y963138D02*
X2010835D01*
X2004142D02*
Y974949D01*
X2010835Y963138D02*
Y974949D01*
X2004142D02*
X2010835D01*
X1994299Y963138D02*
X2000992D01*
X1994299D02*
Y974949D01*
X2000992Y963138D02*
Y974949D01*
X1994299D02*
X2000992D01*
X1907685Y963138D02*
X1914378D01*
Y951327D02*
Y963138D01*
X1907685Y951327D02*
Y963138D01*
Y951327D02*
X1914378D01*
X1676780Y910579D02*
Y917272D01*
X1688591D01*
X1676780Y910579D02*
X1688591D01*
Y917272D01*
X1970677Y1045815D02*
X1977370D01*
Y1034004D02*
Y1045815D01*
X1970677Y1034004D02*
Y1045815D01*
Y1034004D02*
X1977370D01*
X1964181Y902705D02*
Y909398D01*
X1952370Y902705D02*
X1964181D01*
X1952370Y909398D02*
X1964181D01*
X1952370Y902705D02*
Y909398D01*
X1905126Y930264D02*
Y936957D01*
X1916937D01*
X1905126Y930264D02*
X1916937D01*
Y936957D01*
X1873630Y930264D02*
Y936957D01*
X1885441D01*
X1873630Y930264D02*
X1885441D01*
Y936957D01*
D55*
X1899251Y1036503D02*
X1898751Y1037003D01*
X1897752D01*
X1897252Y1036503D01*
Y1034504D01*
X1897752Y1034004D01*
X1898751D01*
X1899251Y1034504D01*
X1900251Y1034004D02*
X1901251D01*
X1900751D01*
Y1037003D01*
X1900251Y1036503D01*
X1904749Y1037003D02*
X1902750D01*
Y1035503D01*
X1903750Y1036003D01*
X1904250D01*
X1904749Y1035503D01*
Y1034504D01*
X1904250Y1034004D01*
X1903250D01*
X1902750Y1034504D01*
X1704369Y934141D02*
X1703870Y934641D01*
X1702870D01*
X1702370Y934141D01*
Y932142D01*
X1702870Y931642D01*
X1703870D01*
X1704369Y932142D01*
X1705369Y931642D02*
X1706369D01*
X1705869D01*
Y934641D01*
X1705369Y934141D01*
X1725205Y938184D02*
Y935685D01*
X1725705Y935185D01*
X1726704D01*
X1727204Y935685D01*
Y938184D01*
X1729703Y935185D02*
Y938184D01*
X1728204Y936685D01*
X1730203D01*
X1981400Y1027100D02*
Y1030099D01*
X1982899D01*
X1983399Y1029599D01*
Y1028599D01*
X1982899Y1028100D01*
X1981400D01*
X1982400D02*
X1983399Y1027100D01*
X1984399Y1029599D02*
X1984899Y1030099D01*
X1985899D01*
X1986398Y1029599D01*
Y1029099D01*
X1985899Y1028599D01*
X1986398Y1028100D01*
Y1027600D01*
X1985899Y1027100D01*
X1984899D01*
X1984399Y1027600D01*
Y1028100D01*
X1984899Y1028599D01*
X1984399Y1029099D01*
Y1029599D01*
X1984899Y1028599D02*
X1985899D01*
X1991699Y1029599D02*
X1991199Y1030099D01*
X1990200D01*
X1989700Y1029599D01*
Y1027600D01*
X1990200Y1027100D01*
X1991199D01*
X1991699Y1027600D01*
X1994698Y1027100D02*
X1992699D01*
X1994698Y1029099D01*
Y1029599D01*
X1994198Y1030099D01*
X1993199D01*
X1992699Y1029599D01*
X1995698D02*
X1996198Y1030099D01*
X1997198D01*
X1997697Y1029599D01*
Y1029099D01*
X1997198Y1028599D01*
X1996698D01*
X1997198D01*
X1997697Y1028100D01*
Y1027600D01*
X1997198Y1027100D01*
X1996198D01*
X1995698Y1027600D01*
X2001599Y1029599D02*
X2001100Y1030099D01*
X2000100D01*
X1999600Y1029599D01*
Y1027600D01*
X2000100Y1027100D01*
X2001100D01*
X2001599Y1027600D01*
X2004598Y1027100D02*
X2002599D01*
X2004598Y1029099D01*
Y1029599D01*
X2004099Y1030099D01*
X2003099D01*
X2002599Y1029599D01*
X2007098Y1027100D02*
Y1030099D01*
X2005598Y1028599D01*
X2007597D01*
X1971999Y1029599D02*
X1971499Y1030099D01*
X1970500D01*
X1970000Y1029599D01*
Y1027600D01*
X1970500Y1027100D01*
X1971499D01*
X1971999Y1027600D01*
X1974998Y1027100D02*
X1972999D01*
X1974998Y1029099D01*
Y1029599D01*
X1974499Y1030099D01*
X1973499D01*
X1972999Y1029599D01*
X1977997Y1027100D02*
X1975998D01*
X1977997Y1029099D01*
Y1029599D01*
X1977498Y1030099D01*
X1976498D01*
X1975998Y1029599D01*
X1852999Y1036999D02*
X1852500Y1037499D01*
X1851500D01*
X1851000Y1036999D01*
Y1035000D01*
X1851500Y1034500D01*
X1852500D01*
X1852999Y1035000D01*
X1855998Y1034500D02*
X1853999D01*
X1855998Y1036499D01*
Y1036999D01*
X1855499Y1037499D01*
X1854499D01*
X1853999Y1036999D01*
X1858997Y1037499D02*
X1856998D01*
Y1035999D01*
X1857998Y1036499D01*
X1858498D01*
X1858997Y1035999D01*
Y1035000D01*
X1858498Y1034500D01*
X1857498D01*
X1856998Y1035000D01*
X1852999Y1044799D02*
X1852500Y1045299D01*
X1851500D01*
X1851000Y1044799D01*
Y1042800D01*
X1851500Y1042300D01*
X1852500D01*
X1852999Y1042800D01*
X1855998Y1042300D02*
X1853999D01*
X1855998Y1044299D01*
Y1044799D01*
X1855499Y1045299D01*
X1854499D01*
X1853999Y1044799D01*
X1858997Y1045299D02*
X1857998Y1044799D01*
X1856998Y1043799D01*
Y1042800D01*
X1857498Y1042300D01*
X1858498D01*
X1858997Y1042800D01*
Y1043300D01*
X1858498Y1043799D01*
X1856998D01*
X1926023Y997920D02*
X1925523Y998420D01*
X1924524D01*
X1924024Y997920D01*
Y995921D01*
X1924524Y995421D01*
X1925523D01*
X1926023Y995921D01*
X1929022Y998420D02*
X1928022Y997920D01*
X1927023Y996921D01*
Y995921D01*
X1927522Y995421D01*
X1928522D01*
X1929022Y995921D01*
Y996421D01*
X1928522Y996921D01*
X1927023D01*
X1967755Y929416D02*
X1967255Y929916D01*
X1966256D01*
X1965756Y929416D01*
Y927417D01*
X1966256Y926917D01*
X1967255D01*
X1967755Y927417D01*
X1968755Y929916D02*
X1970754D01*
Y929416D01*
X1968755Y927417D01*
Y926917D01*
X1983897Y915243D02*
X1983397Y915743D01*
X1982397D01*
X1981898Y915243D01*
Y913244D01*
X1982397Y912744D01*
X1983397D01*
X1983897Y913244D01*
X1984897Y912744D02*
X1985896D01*
X1985397D01*
Y915743D01*
X1984897Y915243D01*
X1987396D02*
X1987896Y915743D01*
X1988895D01*
X1989395Y915243D01*
Y913244D01*
X1988895Y912744D01*
X1987896D01*
X1987396Y913244D01*
Y915243D01*
X1975500Y943788D02*
Y946787D01*
X1976999D01*
X1977499Y946287D01*
Y945288D01*
X1976999Y944788D01*
X1975500D01*
X1976500D02*
X1977499Y943788D01*
X1980498Y946787D02*
X1979499Y946287D01*
X1978499Y945288D01*
Y944288D01*
X1978999Y943788D01*
X1979999D01*
X1980498Y944288D01*
Y944788D01*
X1979999Y945288D01*
X1978499D01*
X1995100Y943788D02*
Y946787D01*
X1996600D01*
X1997099Y946287D01*
Y945288D01*
X1996600Y944788D01*
X1995100D01*
X1996100D02*
X1997099Y943788D01*
X1998099Y946787D02*
X2000098D01*
Y946287D01*
X1998099Y944288D01*
Y943788D01*
X2005699Y946287D02*
X2005199Y946787D01*
X2004200D01*
X2003700Y946287D01*
Y944288D01*
X2004200Y943788D01*
X2005199D01*
X2005699Y944288D01*
X2006699Y943788D02*
X2007699D01*
X2007199D01*
Y946787D01*
X2006699Y946287D01*
X2010698Y943788D02*
Y946787D01*
X2009198Y945288D01*
X2011198D01*
X1986099Y946287D02*
X1985600Y946787D01*
X1984600D01*
X1984100Y946287D01*
Y944288D01*
X1984600Y943788D01*
X1985600D01*
X1986099Y944288D01*
X1987099Y943788D02*
X1988099D01*
X1987599D01*
Y946787D01*
X1987099Y946287D01*
X1989598D02*
X1990098Y946787D01*
X1991098D01*
X1991598Y946287D01*
Y945788D01*
X1991098Y945288D01*
X1990598D01*
X1991098D01*
X1991598Y944788D01*
Y944288D01*
X1991098Y943788D01*
X1990098D01*
X1989598Y944288D01*
X1972812Y914182D02*
X1973311Y913682D01*
X1974311D01*
X1974811Y914182D01*
Y916181D01*
X1974311Y916681D01*
X1973311D01*
X1972812Y916181D01*
X1971812D02*
X1971312Y916681D01*
X1970312D01*
X1969813Y916181D01*
Y914182D01*
X1970312Y913682D01*
X1971312D01*
X1971812Y914182D01*
Y914682D01*
X1971312Y915182D01*
X1969813D01*
X1994436Y895469D02*
X1993937Y895968D01*
X1992937D01*
X1992437Y895469D01*
Y893469D01*
X1992937Y892969D01*
X1993937D01*
X1994436Y893469D01*
X1995436Y892969D02*
X1996436D01*
X1995936D01*
Y895968D01*
X1995436Y895469D01*
X1997935Y892969D02*
X1998935D01*
X1998435D01*
Y895968D01*
X1997935Y895469D01*
X2003736D02*
X2003237Y895968D01*
X2002237D01*
X2001737Y895469D01*
Y893469D01*
X2002237Y892969D01*
X2003237D01*
X2003736Y893469D01*
X2004736Y892969D02*
X2005736D01*
X2005236D01*
Y895968D01*
X2004736Y895469D01*
X2009235Y892969D02*
X2007235D01*
X2009235Y894969D01*
Y895469D01*
X2008735Y895968D01*
X2007735D01*
X2007235Y895469D01*
X2007000Y864700D02*
Y867699D01*
X2008500D01*
X2008999Y867199D01*
Y866199D01*
X2008500Y865700D01*
X2007000D01*
X2008000D02*
X2008999Y864700D01*
X2009999Y867199D02*
X2010499Y867699D01*
X2011498D01*
X2011998Y867199D01*
Y866699D01*
X2011498Y866199D01*
X2010999D01*
X2011498D01*
X2011998Y865700D01*
Y865200D01*
X2011498Y864700D01*
X2010499D01*
X2009999Y865200D01*
X1999099Y867199D02*
X1998599Y867699D01*
X1997600D01*
X1997100Y867199D01*
Y865200D01*
X1997600Y864700D01*
X1998599D01*
X1999099Y865200D01*
X2000099Y867199D02*
X2000599Y867699D01*
X2001599D01*
X2002098Y867199D01*
Y866699D01*
X2001599Y866199D01*
X2001099D01*
X2001599D01*
X2002098Y865700D01*
Y865200D01*
X2001599Y864700D01*
X2000599D01*
X2000099Y865200D01*
X2015362Y888335D02*
Y891334D01*
X2016862D01*
X2017361Y890834D01*
Y889834D01*
X2016862Y889334D01*
X2015362D01*
X2016362D02*
X2017361Y888335D01*
X2019861D02*
Y891334D01*
X2018361Y889834D01*
X2020361D01*
X1921600Y914636D02*
Y911637D01*
X1923100D01*
X1923599Y912137D01*
Y914136D01*
X1923100Y914636D01*
X1921600D01*
X1926598Y911637D02*
X1924599D01*
X1926598Y913636D01*
Y914136D01*
X1926098Y914636D01*
X1925099D01*
X1924599Y914136D01*
X1815432Y937267D02*
Y934268D01*
X1816931D01*
X1817431Y934768D01*
Y936768D01*
X1816931Y937267D01*
X1815432D01*
X1818431Y934268D02*
X1819430D01*
X1818930D01*
Y937267D01*
X1818431Y936768D01*
X1877567Y966137D02*
Y963638D01*
X1878067Y963138D01*
X1879066D01*
X1879566Y963638D01*
Y966137D01*
X1880566Y963138D02*
X1881566D01*
X1881066D01*
Y966137D01*
X1880566Y965637D01*
X1987803Y1009444D02*
Y1006945D01*
X1988303Y1006445D01*
X1989303D01*
X1989803Y1006945D01*
Y1009444D01*
X1992801D02*
X1990802D01*
Y1007944D01*
X1991802Y1008444D01*
X1992302D01*
X1992801Y1007944D01*
Y1006945D01*
X1992302Y1006445D01*
X1991302D01*
X1990802Y1006945D01*
X1972055Y934641D02*
Y932142D01*
X1972555Y931642D01*
X1973555D01*
X1974055Y932142D01*
Y934641D01*
X1975054Y934141D02*
X1975554Y934641D01*
X1976554D01*
X1977053Y934141D01*
Y933641D01*
X1976554Y933141D01*
X1976054D01*
X1976554D01*
X1977053Y932641D01*
Y932142D01*
X1976554Y931642D01*
X1975554D01*
X1975054Y932142D01*
X1950432Y1034535D02*
X1949933Y1035034D01*
X1948933D01*
X1948433Y1034535D01*
Y1032535D01*
X1948933Y1032035D01*
X1949933D01*
X1950432Y1032535D01*
X1951432Y1034535D02*
X1951932Y1035034D01*
X1952932D01*
X1953432Y1034535D01*
Y1034035D01*
X1952932Y1033535D01*
X1952432D01*
X1952932D01*
X1953432Y1033035D01*
Y1032535D01*
X1952932Y1032035D01*
X1951932D01*
X1951432Y1032535D01*
X1954431Y1032035D02*
X1955431D01*
X1954931D01*
Y1035034D01*
X1954431Y1034535D01*
X1914968Y1046846D02*
Y1044346D01*
X1915468Y1043847D01*
X1916468D01*
X1916968Y1044346D01*
Y1046846D01*
X1917967D02*
X1919967D01*
Y1046346D01*
X1917967Y1044346D01*
Y1043847D01*
X1787700Y1045299D02*
Y1042300D01*
X1789199D01*
X1789699Y1042800D01*
Y1044799D01*
X1789199Y1045299D01*
X1787700D01*
X1790699Y1044799D02*
X1791199Y1045299D01*
X1792199D01*
X1792698Y1044799D01*
Y1044299D01*
X1792199Y1043799D01*
X1791699D01*
X1792199D01*
X1792698Y1043300D01*
Y1042800D01*
X1792199Y1042300D01*
X1791199D01*
X1790699Y1042800D01*
X1787899Y1032999D02*
X1787399Y1033499D01*
X1786400D01*
X1785900Y1032999D01*
Y1031000D01*
X1786400Y1030500D01*
X1787399D01*
X1787899Y1031000D01*
X1788899Y1032999D02*
X1789399Y1033499D01*
X1790398D01*
X1790898Y1032999D01*
Y1032499D01*
X1790398Y1031999D01*
X1789899D01*
X1790398D01*
X1790898Y1031500D01*
Y1031000D01*
X1790398Y1030500D01*
X1789399D01*
X1788899Y1031000D01*
X1791898Y1032999D02*
X1792398Y1033499D01*
X1793398D01*
X1793897Y1032999D01*
Y1031000D01*
X1793398Y1030500D01*
X1792398D01*
X1791898Y1031000D01*
Y1032999D01*
X1787899Y1021199D02*
X1787399Y1021699D01*
X1786400D01*
X1785900Y1021199D01*
Y1019200D01*
X1786400Y1018700D01*
X1787399D01*
X1787899Y1019200D01*
X1790898Y1018700D02*
X1788899D01*
X1790898Y1020699D01*
Y1021199D01*
X1790398Y1021699D01*
X1789399D01*
X1788899Y1021199D01*
X1791898Y1019200D02*
X1792398Y1018700D01*
X1793398D01*
X1793897Y1019200D01*
Y1021199D01*
X1793398Y1021699D01*
X1792398D01*
X1791898Y1021199D01*
Y1020699D01*
X1792398Y1020199D01*
X1793897D01*
X1645314Y1022724D02*
X1644814Y1023223D01*
X1643815D01*
X1643315Y1022724D01*
Y1020724D01*
X1643815Y1020224D01*
X1644814D01*
X1645314Y1020724D01*
X1647813Y1020224D02*
Y1023223D01*
X1646314Y1021724D01*
X1648313D01*
X1710275Y1068393D02*
X1709775Y1068893D01*
X1708775D01*
X1708276Y1068393D01*
Y1066393D01*
X1708775Y1065894D01*
X1709775D01*
X1710275Y1066393D01*
X1713274Y1068893D02*
X1711275D01*
Y1067393D01*
X1712274Y1067893D01*
X1712774D01*
X1713274Y1067393D01*
Y1066393D01*
X1712774Y1065894D01*
X1711774D01*
X1711275Y1066393D01*
X1813499Y968099D02*
X1813000Y968599D01*
X1812000D01*
X1811500Y968099D01*
Y966100D01*
X1812000Y965600D01*
X1813000D01*
X1813499Y966100D01*
X1816498Y965600D02*
X1814499D01*
X1816498Y967599D01*
Y968099D01*
X1815998Y968599D01*
X1814999D01*
X1814499Y968099D01*
X1817498D02*
X1817998Y968599D01*
X1818998D01*
X1819497Y968099D01*
Y967599D01*
X1818998Y967099D01*
X1819497Y966600D01*
Y966100D01*
X1818998Y965600D01*
X1817998D01*
X1817498Y966100D01*
Y966600D01*
X1817998Y967099D01*
X1817498Y967599D01*
Y968099D01*
X1817998Y967099D02*
X1818998D01*
X1813499Y948399D02*
X1813000Y948899D01*
X1812000D01*
X1811500Y948399D01*
Y946400D01*
X1812000Y945900D01*
X1813000D01*
X1813499Y946400D01*
X1816498Y945900D02*
X1814499D01*
X1816498Y947899D01*
Y948399D01*
X1815998Y948899D01*
X1814999D01*
X1814499Y948399D01*
X1817498Y948899D02*
X1819497D01*
Y948399D01*
X1817498Y946400D01*
Y945900D01*
X1815500Y958699D02*
Y955700D01*
X1817499D01*
X1818499D02*
X1819499D01*
X1818999D01*
Y958699D01*
X1818499Y958199D01*
X1747319Y939657D02*
X1746820Y940157D01*
X1745820D01*
X1745320Y939657D01*
Y937658D01*
X1745820Y937158D01*
X1746820D01*
X1747319Y937658D01*
X1748319Y939657D02*
X1748819Y940157D01*
X1749819D01*
X1750319Y939657D01*
Y939157D01*
X1749819Y938658D01*
X1750319Y938158D01*
Y937658D01*
X1749819Y937158D01*
X1748819D01*
X1748319Y937658D01*
Y938158D01*
X1748819Y938658D01*
X1748319Y939157D01*
Y939657D01*
X1748819Y938658D02*
X1749819D01*
X1986873Y980431D02*
X1986374Y980931D01*
X1985374D01*
X1984874Y980431D01*
Y978431D01*
X1985374Y977931D01*
X1986374D01*
X1986873Y978431D01*
X1987873Y977931D02*
X1988873D01*
X1988373D01*
Y980931D01*
X1987873Y980431D01*
X1990372Y978431D02*
X1990872Y977931D01*
X1991872D01*
X1992372Y978431D01*
Y980431D01*
X1991872Y980931D01*
X1990872D01*
X1990372Y980431D01*
Y979931D01*
X1990872Y979431D01*
X1992372D01*
X1977072Y980431D02*
X1976572Y980931D01*
X1975572D01*
X1975072Y980431D01*
Y978431D01*
X1975572Y977931D01*
X1976572D01*
X1977072Y978431D01*
X1978072Y977931D02*
X1979071D01*
X1978571D01*
Y980931D01*
X1978072Y980431D01*
X1980571D02*
X1981071Y980931D01*
X1982070D01*
X1982570Y980431D01*
Y979931D01*
X1982070Y979431D01*
X1982570Y978931D01*
Y978431D01*
X1982070Y977931D01*
X1981071D01*
X1980571Y978431D01*
Y978931D01*
X1981071Y979431D01*
X1980571Y979931D01*
Y980431D01*
X1981071Y979431D02*
X1982070D01*
X1944921Y926661D02*
X1944421Y927160D01*
X1943421D01*
X1942921Y926661D01*
Y924661D01*
X1943421Y924161D01*
X1944421D01*
X1944921Y924661D01*
X1945920Y924161D02*
X1946920D01*
X1946420D01*
Y927160D01*
X1945920Y926661D01*
X1950419Y927160D02*
X1949419Y926661D01*
X1948420Y925661D01*
Y924661D01*
X1948919Y924161D01*
X1949919D01*
X1950419Y924661D01*
Y925161D01*
X1949919Y925661D01*
X1948420D01*
X1971199Y1003999D02*
X1970700Y1004499D01*
X1969700D01*
X1969200Y1003999D01*
Y1002000D01*
X1969700Y1001500D01*
X1970700D01*
X1971199Y1002000D01*
X1972199Y1001500D02*
X1973199D01*
X1972699D01*
Y1004499D01*
X1972199Y1003999D01*
X1974698Y1004499D02*
X1976698D01*
Y1003999D01*
X1974698Y1002000D01*
Y1001500D01*
X2006542Y980431D02*
X2006042Y980931D01*
X2005042D01*
X2004543Y980431D01*
Y978431D01*
X2005042Y977931D01*
X2006042D01*
X2006542Y978431D01*
X2009541Y977931D02*
X2007541D01*
X2009541Y979931D01*
Y980431D01*
X2009041Y980931D01*
X2008041D01*
X2007541Y980431D01*
X2010541Y977931D02*
X2011540D01*
X2011040D01*
Y980931D01*
X2010541Y980431D01*
X1996742D02*
X1996242Y980931D01*
X1995242D01*
X1994743Y980431D01*
Y978431D01*
X1995242Y977931D01*
X1996242D01*
X1996742Y978431D01*
X1999741Y977931D02*
X1997742D01*
X1999741Y979931D01*
Y980431D01*
X1999241Y980931D01*
X1998241D01*
X1997742Y980431D01*
X2000741D02*
X2001240Y980931D01*
X2002240D01*
X2002740Y980431D01*
Y978431D01*
X2002240Y977931D01*
X2001240D01*
X2000741Y978431D01*
Y980431D01*
X1910176Y968595D02*
X1909676Y969095D01*
X1908676D01*
X1908176Y968595D01*
Y966596D01*
X1908676Y966096D01*
X1909676D01*
X1910176Y966596D01*
X1913175Y966096D02*
X1911175D01*
X1913175Y968095D01*
Y968595D01*
X1912675Y969095D01*
X1911675D01*
X1911175Y968595D01*
X1658099Y1062499D02*
X1657599Y1062999D01*
X1656600D01*
X1656100Y1062499D01*
Y1060500D01*
X1656600Y1060000D01*
X1657599D01*
X1658099Y1060500D01*
Y1061500D01*
X1657100D01*
X1659099Y1060000D02*
Y1062999D01*
X1660599D01*
X1661098Y1062499D01*
Y1061500D01*
X1660599Y1061000D01*
X1659099D01*
X1664097Y1062499D02*
X1663598Y1062999D01*
X1662598D01*
X1662098Y1062499D01*
Y1061999D01*
X1662598Y1061500D01*
X1663598D01*
X1664097Y1061000D01*
Y1060500D01*
X1663598Y1060000D01*
X1662598D01*
X1662098Y1060500D01*
X1665097Y1060000D02*
X1666097D01*
X1665597D01*
Y1062999D01*
X1665097Y1062499D01*
X1920905Y916393D02*
Y918393D01*
X1920405Y918893D01*
X1919405D01*
X1918905Y918393D01*
Y916393D01*
X1919405Y915894D01*
X1920405D01*
X1919905Y916893D02*
X1920905Y915894D01*
X1920405D02*
X1920905Y916393D01*
X1923904Y915894D02*
X1921905D01*
X1923904Y917893D01*
Y918393D01*
X1923404Y918893D01*
X1922404D01*
X1921905Y918393D01*
X1865787Y916393D02*
Y918393D01*
X1865287Y918893D01*
X1864287D01*
X1863787Y918393D01*
Y916393D01*
X1864287Y915894D01*
X1865287D01*
X1864787Y916893D02*
X1865787Y915894D01*
X1865287D02*
X1865787Y916393D01*
X1866786Y915894D02*
X1867786D01*
X1867286D01*
Y918893D01*
X1866786Y918393D01*
X1679142Y905657D02*
Y908657D01*
X1680641D01*
X1681141Y908157D01*
Y907157D01*
X1680641Y906657D01*
X1679142D01*
X1680141D02*
X1681141Y905657D01*
X1682141D02*
X1683140D01*
X1682641D01*
Y908657D01*
X1682141Y908157D01*
X1684640D02*
X1685140Y908657D01*
X1686139D01*
X1686639Y908157D01*
Y906157D01*
X1686139Y905657D01*
X1685140D01*
X1684640Y906157D01*
Y908157D01*
X1971100Y1048806D02*
Y1051805D01*
X1972599D01*
X1973099Y1051305D01*
Y1050305D01*
X1972599Y1049805D01*
X1971100D01*
X1972100D02*
X1973099Y1048806D01*
X1974099Y1049305D02*
X1974599Y1048806D01*
X1975599D01*
X1976098Y1049305D01*
Y1051305D01*
X1975599Y1051805D01*
X1974599D01*
X1974099Y1051305D01*
Y1050805D01*
X1974599Y1050305D01*
X1976098D01*
X1952784Y912306D02*
Y915304D01*
X1954283D01*
X1954783Y914805D01*
Y913805D01*
X1954283Y913305D01*
X1952784D01*
X1953783D02*
X1954783Y912306D01*
X1957782Y915304D02*
X1955783D01*
Y913805D01*
X1956782Y914305D01*
X1957282D01*
X1957782Y913805D01*
Y912805D01*
X1957282Y912306D01*
X1956282D01*
X1955783Y912805D01*
X1918905Y931642D02*
Y934641D01*
X1920405D01*
X1920905Y934141D01*
Y933141D01*
X1920405Y932641D01*
X1918905D01*
X1919905D02*
X1920905Y931642D01*
X1923904D02*
X1921905D01*
X1923904Y933641D01*
Y934141D01*
X1923404Y934641D01*
X1922404D01*
X1921905Y934141D01*
X1861819Y931642D02*
Y934641D01*
X1863318D01*
X1863818Y934141D01*
Y933141D01*
X1863318Y932641D01*
X1861819D01*
X1862819D02*
X1863818Y931642D01*
X1864818D02*
X1865818D01*
X1865318D01*
Y934641D01*
X1864818Y934141D01*
X1682700Y938599D02*
Y936100D01*
X1683200Y935600D01*
X1684200D01*
X1684699Y936100D01*
Y938599D01*
X1687698Y935600D02*
X1685699D01*
X1687698Y937599D01*
Y938099D01*
X1687198Y938599D01*
X1686199D01*
X1685699Y938099D01*
X1798827Y1005507D02*
Y1003008D01*
X1799327Y1002508D01*
X1800326D01*
X1800826Y1003008D01*
Y1005507D01*
X1803825D02*
X1802826Y1005007D01*
X1801826Y1004007D01*
Y1003008D01*
X1802326Y1002508D01*
X1803325D01*
X1803825Y1003008D01*
Y1003508D01*
X1803325Y1004007D01*
X1801826D01*
M02*
