G04*
G04 #@! TF.GenerationSoftware,Altium Limited,CircuitStudio,1.5.2 (1.5.2.30)*
G04*
G04 Layer_Color=7318015*
%FSLAX25Y25*%
%MOIN*%
G70*
G01*
G75*
%ADD10R,0.02756X0.05118*%
%ADD11R,0.05118X0.02756*%
%ADD12R,0.01969X0.01378*%
%ADD13R,0.15748X0.07874*%
%ADD14R,0.15000X0.11000*%
%ADD15R,0.11000X0.15000*%
%ADD16R,0.13189X0.13189*%
%ADD17R,0.02165X0.01575*%
%ADD18R,0.01575X0.02165*%
G04:AMPARAMS|DCode=19|XSize=23.62mil|YSize=9.84mil|CornerRadius=2.46mil|HoleSize=0mil|Usage=FLASHONLY|Rotation=180.000|XOffset=0mil|YOffset=0mil|HoleType=Round|Shape=RoundedRectangle|*
%AMROUNDEDRECTD19*
21,1,0.02362,0.00492,0,0,180.0*
21,1,0.01870,0.00984,0,0,180.0*
1,1,0.00492,-0.00935,0.00246*
1,1,0.00492,0.00935,0.00246*
1,1,0.00492,0.00935,-0.00246*
1,1,0.00492,-0.00935,-0.00246*
%
%ADD19ROUNDEDRECTD19*%
%ADD20R,0.02362X0.00984*%
G04:AMPARAMS|DCode=21|XSize=23.62mil|YSize=9.84mil|CornerRadius=2.46mil|HoleSize=0mil|Usage=FLASHONLY|Rotation=270.000|XOffset=0mil|YOffset=0mil|HoleType=Round|Shape=RoundedRectangle|*
%AMROUNDEDRECTD21*
21,1,0.02362,0.00492,0,0,270.0*
21,1,0.01870,0.00984,0,0,270.0*
1,1,0.00492,-0.00246,-0.00935*
1,1,0.00492,-0.00246,0.00935*
1,1,0.00492,0.00246,0.00935*
1,1,0.00492,0.00246,-0.00935*
%
%ADD21ROUNDEDRECTD21*%
G04:AMPARAMS|DCode=22|XSize=96.46mil|YSize=96.46mil|CornerRadius=2.41mil|HoleSize=0mil|Usage=FLASHONLY|Rotation=0.000|XOffset=0mil|YOffset=0mil|HoleType=Round|Shape=RoundedRectangle|*
%AMROUNDEDRECTD22*
21,1,0.09646,0.09163,0,0,0.0*
21,1,0.09163,0.09646,0,0,0.0*
1,1,0.00482,0.04582,-0.04582*
1,1,0.00482,-0.04582,-0.04582*
1,1,0.00482,-0.04582,0.04582*
1,1,0.00482,0.04582,0.04582*
%
%ADD22ROUNDEDRECTD22*%
G04:AMPARAMS|DCode=23|XSize=53.15mil|YSize=15.75mil|CornerRadius=3.94mil|HoleSize=0mil|Usage=FLASHONLY|Rotation=0.000|XOffset=0mil|YOffset=0mil|HoleType=Round|Shape=RoundedRectangle|*
%AMROUNDEDRECTD23*
21,1,0.05315,0.00787,0,0,0.0*
21,1,0.04528,0.01575,0,0,0.0*
1,1,0.00787,0.02264,-0.00394*
1,1,0.00787,-0.02264,-0.00394*
1,1,0.00787,-0.02264,0.00394*
1,1,0.00787,0.02264,0.00394*
%
%ADD23ROUNDEDRECTD23*%
%ADD24R,0.05315X0.01575*%
%ADD25R,0.01929X0.01772*%
%ADD26R,0.07087X0.05906*%
%ADD27R,0.05906X0.07087*%
%ADD28R,0.01969X0.03150*%
G04:AMPARAMS|DCode=29|XSize=17.72mil|YSize=11.81mil|CornerRadius=1.18mil|HoleSize=0mil|Usage=FLASHONLY|Rotation=0.000|XOffset=0mil|YOffset=0mil|HoleType=Round|Shape=RoundedRectangle|*
%AMROUNDEDRECTD29*
21,1,0.01772,0.00945,0,0,0.0*
21,1,0.01535,0.01181,0,0,0.0*
1,1,0.00236,0.00768,-0.00472*
1,1,0.00236,-0.00768,-0.00472*
1,1,0.00236,-0.00768,0.00472*
1,1,0.00236,0.00768,0.00472*
%
%ADD29ROUNDEDRECTD29*%
%ADD30R,0.04173X0.04173*%
D10*
X1893118Y1034004D02*
D03*
X1885638D02*
D03*
X1845874Y1035972D02*
D03*
X1838394D02*
D03*
X1845874Y1043847D02*
D03*
X1838394D02*
D03*
X2001780Y888335D02*
D03*
X2009260D02*
D03*
X1799024Y1032035D02*
D03*
X1806504D02*
D03*
X1799024Y1020224D02*
D03*
X1806504D02*
D03*
X1704142Y1067468D02*
D03*
X1696661D02*
D03*
X1832095Y967075D02*
D03*
X1824614D02*
D03*
Y947390D02*
D03*
X1832095D02*
D03*
X1824614Y957232D02*
D03*
X1832095D02*
D03*
X1751386Y931642D02*
D03*
X1743905D02*
D03*
X1678945Y913925D02*
D03*
X1686425D02*
D03*
X1962016Y906051D02*
D03*
X1954535D02*
D03*
X1907291Y933610D02*
D03*
X1914772D02*
D03*
X1875795D02*
D03*
X1883276D02*
D03*
D11*
X1704339Y920028D02*
D03*
Y927508D02*
D03*
X1983866Y1014516D02*
D03*
Y1021996D02*
D03*
X1993709D02*
D03*
Y1014516D02*
D03*
X2003551Y1021996D02*
D03*
Y1014516D02*
D03*
X1974024Y1021996D02*
D03*
Y1014516D02*
D03*
X1964181Y915697D02*
D03*
Y923177D02*
D03*
X1985835Y901130D02*
D03*
Y908610D02*
D03*
X1977961Y951917D02*
D03*
Y959398D02*
D03*
X1997646D02*
D03*
Y951917D02*
D03*
X2007488Y959398D02*
D03*
Y951917D02*
D03*
X1987803Y959398D02*
D03*
Y951917D02*
D03*
X1972842Y901130D02*
D03*
Y908610D02*
D03*
X1995677Y901130D02*
D03*
Y908610D02*
D03*
X2005520Y901130D02*
D03*
Y908610D02*
D03*
X2009457Y880264D02*
D03*
Y872783D02*
D03*
X1999614D02*
D03*
Y880264D02*
D03*
X1942528Y1037744D02*
D03*
Y1030264D02*
D03*
X1637409Y1018453D02*
D03*
Y1025933D02*
D03*
X1987803Y965303D02*
D03*
Y972783D02*
D03*
X1977961Y965303D02*
D03*
Y972783D02*
D03*
X1972055Y988925D02*
D03*
Y996406D02*
D03*
X2007488Y965303D02*
D03*
Y972783D02*
D03*
X1997646Y965303D02*
D03*
Y972783D02*
D03*
X1911032Y960972D02*
D03*
Y953492D02*
D03*
X1974024Y1043650D02*
D03*
Y1036169D02*
D03*
D12*
X1731996Y931543D02*
D03*
Y928984D02*
D03*
Y926425D02*
D03*
Y923866D02*
D03*
X1723925D02*
D03*
Y926425D02*
D03*
Y928984D02*
D03*
Y931543D02*
D03*
D13*
X1934063Y980854D02*
D03*
X1962016D02*
D03*
X1934063Y945421D02*
D03*
X1962016D02*
D03*
D14*
X1932685Y874285D02*
D03*
Y902384D02*
D03*
D15*
X1822179Y919830D02*
D03*
X1850278D02*
D03*
D16*
X1895284Y953295D02*
D03*
D17*
X1886425D02*
D03*
Y955854D02*
D03*
Y958413D02*
D03*
Y950736D02*
D03*
Y948177D02*
D03*
X1904142Y953295D02*
D03*
Y950736D02*
D03*
Y948177D02*
D03*
Y955854D02*
D03*
Y958413D02*
D03*
D18*
X1895284Y962154D02*
D03*
X1897842D02*
D03*
X1900402D02*
D03*
X1892724D02*
D03*
X1890165D02*
D03*
X1900402Y944437D02*
D03*
X1897842D02*
D03*
X1890165D02*
D03*
X1892724D02*
D03*
X1895284D02*
D03*
D19*
X1997252Y993650D02*
D03*
Y991681D02*
D03*
Y995618D02*
D03*
Y997587D02*
D03*
Y999555D02*
D03*
X1982291Y995618D02*
D03*
Y997587D02*
D03*
Y999555D02*
D03*
Y993650D02*
D03*
Y991681D02*
D03*
Y989713D02*
D03*
X1999220Y930657D02*
D03*
Y928689D02*
D03*
Y932626D02*
D03*
Y934595D02*
D03*
Y936563D02*
D03*
X1984260Y932626D02*
D03*
Y934595D02*
D03*
Y936563D02*
D03*
Y930657D02*
D03*
Y928689D02*
D03*
Y926721D02*
D03*
D20*
X1997252Y989713D02*
D03*
X1999220Y926721D02*
D03*
D21*
X1984850Y1002114D02*
D03*
X1986819D02*
D03*
X1988787D02*
D03*
X1994693D02*
D03*
X1992724D02*
D03*
X1990756D02*
D03*
X1988787Y987154D02*
D03*
X1986819D02*
D03*
X1984850D02*
D03*
X1990756D02*
D03*
X1992724D02*
D03*
X1994693D02*
D03*
X1986819Y939122D02*
D03*
X1988787D02*
D03*
X1990756D02*
D03*
X1996661D02*
D03*
X1994693D02*
D03*
X1992724D02*
D03*
X1990756Y924161D02*
D03*
X1988787D02*
D03*
X1986819D02*
D03*
X1992724D02*
D03*
X1994693D02*
D03*
X1996661D02*
D03*
D22*
X1989772Y994634D02*
D03*
X1991740Y931642D02*
D03*
D23*
X1927370Y1032134D02*
D03*
Y1034693D02*
D03*
Y1037252D02*
D03*
Y1039811D02*
D03*
X1910441Y1032134D02*
D03*
Y1034693D02*
D03*
Y1037252D02*
D03*
D24*
Y1039811D02*
D03*
D25*
X1798276Y1043847D02*
D03*
X1807252D02*
D03*
D26*
X1662606Y1024161D02*
D03*
Y1031642D02*
D03*
Y1039122D02*
D03*
Y1016681D02*
D03*
Y1009201D02*
D03*
X1714575Y1039122D02*
D03*
Y1031642D02*
D03*
Y1009201D02*
D03*
Y1016681D02*
D03*
Y1024161D02*
D03*
D27*
X1703551Y998177D02*
D03*
X1696071D02*
D03*
X1673630D02*
D03*
X1681110D02*
D03*
X1688591D02*
D03*
X1673630Y1050146D02*
D03*
X1681110D02*
D03*
X1703551D02*
D03*
X1696071D02*
D03*
X1688591D02*
D03*
D28*
X1911032Y915697D02*
D03*
X1908472Y923965D02*
D03*
X1913591D02*
D03*
X1879535Y915697D02*
D03*
X1876976Y923965D02*
D03*
X1882095D02*
D03*
D29*
X1684752Y927705D02*
D03*
Y930264D02*
D03*
Y925146D02*
D03*
X1692429D02*
D03*
Y927705D02*
D03*
Y930264D02*
D03*
D30*
X1842134Y1018571D02*
D03*
Y1009555D02*
D03*
Y1000539D02*
D03*
Y991524D02*
D03*
Y982508D02*
D03*
X1833118D02*
D03*
Y991524D02*
D03*
Y1000539D02*
D03*
Y1009555D02*
D03*
Y1018571D02*
D03*
X1824102Y982508D02*
D03*
Y991524D02*
D03*
Y1000539D02*
D03*
Y1009555D02*
D03*
Y1018571D02*
D03*
X1851150Y982508D02*
D03*
Y991524D02*
D03*
Y1000539D02*
D03*
Y1009555D02*
D03*
Y1018571D02*
D03*
X1860165Y982508D02*
D03*
Y991524D02*
D03*
Y1000539D02*
D03*
Y1009555D02*
D03*
Y1018571D02*
D03*
M02*
