G04*
G04 #@! TF.GenerationSoftware,Altium Limited,CircuitStudio,1.5.2 (1.5.2.30)*
G04*
G04 Layer_Color=8150272*
%FSLAX25Y25*%
%MOIN*%
G70*
G01*
G75*
G04:AMPARAMS|DCode=68|XSize=101.97mil|YSize=101.97mil|CornerRadius=5.17mil|HoleSize=0mil|Usage=FLASHONLY|Rotation=0.000|XOffset=0mil|YOffset=0mil|HoleType=Round|Shape=RoundedRectangle|*
%AMROUNDEDRECTD68*
21,1,0.10197,0.09163,0,0,0.0*
21,1,0.09163,0.10197,0,0,0.0*
1,1,0.01034,0.04582,-0.04582*
1,1,0.01034,-0.04582,-0.04582*
1,1,0.01034,-0.04582,0.04582*
1,1,0.01034,0.04582,0.04582*
%
%ADD68ROUNDEDRECTD68*%
%ADD77C,0.08674*%
%ADD78R,0.08674X0.08674*%
%ADD79R,0.07887X0.07887*%
%ADD80C,0.07887*%
%ADD81R,0.12611X0.12611*%
%ADD82C,0.12611*%
%ADD83R,0.08674X0.08674*%
%ADD84C,0.24422*%
%ADD85R,0.07099X0.07099*%
%ADD86C,0.07099*%
%ADD88O,0.08674X0.14579*%
%ADD89O,0.08674X0.20485*%
D68*
X1989772Y994634D02*
D03*
X1991740Y931642D02*
D03*
D77*
X2023236Y1005461D02*
D03*
Y995618D02*
D03*
Y985776D02*
D03*
Y938531D02*
D03*
Y928689D02*
D03*
Y918847D02*
D03*
X1905126Y1016287D02*
D03*
X1895284D02*
D03*
X1946465D02*
D03*
X1956307D02*
D03*
X1686622Y876524D02*
D03*
X1746661D02*
D03*
X1736819D02*
D03*
X1726976D02*
D03*
X1913984Y982823D02*
D03*
X1904142D02*
D03*
X1894299D02*
D03*
D78*
X2023236Y975933D02*
D03*
Y909004D02*
D03*
D79*
X1868709Y896996D02*
D03*
X1900205D02*
D03*
D80*
X1878551D02*
D03*
X1910047D02*
D03*
D81*
X1962213Y876524D02*
D03*
X1824417D02*
D03*
D82*
X1981898D02*
D03*
X1844102D02*
D03*
D83*
X1885441Y1016287D02*
D03*
X1936622D02*
D03*
X1676780Y876524D02*
D03*
X1717134D02*
D03*
X1884457Y982823D02*
D03*
D84*
X2027173Y872587D02*
D03*
X1798827D02*
D03*
X2027173Y1065500D02*
D03*
X1798827D02*
D03*
D85*
X1818000Y1060500D02*
D03*
D86*
Y1070500D02*
D03*
X1828000Y1060500D02*
D03*
Y1070500D02*
D03*
X1838000D02*
D03*
Y1060500D02*
D03*
X1848000Y1070500D02*
D03*
Y1060500D02*
D03*
X1878000D02*
D03*
Y1070500D02*
D03*
X1868000Y1060500D02*
D03*
Y1070500D02*
D03*
X1858000D02*
D03*
Y1060500D02*
D03*
X1918000D02*
D03*
Y1070500D02*
D03*
X1928000D02*
D03*
Y1060500D02*
D03*
X1938000Y1070500D02*
D03*
Y1060500D02*
D03*
X1908000D02*
D03*
Y1070500D02*
D03*
X1898000Y1060500D02*
D03*
Y1070500D02*
D03*
X1888000D02*
D03*
Y1060500D02*
D03*
X1948000D02*
D03*
Y1070500D02*
D03*
X1958000D02*
D03*
Y1060500D02*
D03*
X1968000Y1070500D02*
D03*
Y1060500D02*
D03*
X1998000D02*
D03*
Y1070500D02*
D03*
X1988000Y1060500D02*
D03*
Y1070500D02*
D03*
X1978000D02*
D03*
Y1060500D02*
D03*
X2008000Y1070500D02*
D03*
Y1060500D02*
D03*
D88*
X1761819Y923768D02*
D03*
D89*
X1654732D02*
D03*
M02*
